<?xml version="1.0" standalone="no"?>
<!DOCTYPE svg PUBLIC "-//W3C//DTD SVG 1.1//EN" "http://www.w3.org/Graphics/SVG/1.1/DTD/svg11.dtd" >
<svg>
<metadata>
Created by FontForge 20120731 at Sat Jun 29 23:52:55 2019
 By www
Graham's Hands
</metadata>
<defs>
<font id="gragsie" horiz-adv-x="1074" >
  <font-face 
    font-family="Gragsie"
    font-weight="400"
    font-stretch="normal"
    units-per-em="2048"
    panose-1="2 11 6 0 2 2 2 2 2 4"
    ascent="1638"
    descent="-410"
    x-height="976"
    cap-height="1283"
    bbox="-176 -599 1962 1923"
    underline-thickness="127"
    underline-position="-198"
    unicode-range="U+0020-F007"
  />
<missing-glyph horiz-adv-x="1024" 
 />
    <glyph glyph-name=".notdef" horiz-adv-x="1024" 
 />
    <glyph glyph-name="glyph1" horiz-adv-x="0" 
 />
    <glyph glyph-name="glyph2" horiz-adv-x="752" 
 />
    <glyph glyph-name="space" unicode=" " horiz-adv-x="617" 
 />
    <glyph glyph-name="exclam" unicode="!" horiz-adv-x="752" 
d="M320 696zM328 784zM410 1229l46 -40v-33l-27 -26q-33 -80 -39 -165q6 -245 -20 -311l7 -264q-7 -46 -40 -46l-33 13v13l-27 20l20 555l14 39l-7 20q13 79 33 106l-7 6l40 93zM284 205q40 11 79 -27q20 -13 40 -59v-40q-46 -86 -73 -72l-46 6q-32 23 -59 60q-14 46 26 119
z" />
    <glyph glyph-name="quotedbl" unicode="&#x22;" horiz-adv-x="665" 
d="M224 1108zM392 1164zM228 1104zM396 1160zM211 1341q66 -13 53 -79l-13 -159l13 -46q-13 -79 0 -106l-26 -19q-66 19 -73 66q13 171 -6 185l13 99l-7 33q20 26 46 26zM396 1354l33 -13l20 -66l-20 -145l7 -218l-13 -14q-86 -13 -86 139l20 264q6 40 39 53z" />
    <glyph glyph-name="numbersign" unicode="#" horiz-adv-x="1198" 
d="M447 1420l55 -23q-16 -87 0 -181q8 16 110 0l55 16l24 -8l125 16l16 204q8 55 63 55q39 -24 39 -55l-8 -165l71 -31l117 7l32 -31l-16 -47l-47 -24l-157 -15q-47 -8 -31 -157q70 16 86 0q86 39 118 -24q15 -55 -71 -78l-47 8l-102 -24q-24 -8 -24 -306q-15 -47 -55 -39
q-31 8 -23 55l-32 47q16 63 0 149l16 78l-86 8q-24 8 -63 -23q-126 8 -157 -47q-8 -71 16 -126q0 -63 -32 -94l8 -86l-23 -16q-63 0 -63 31l-24 71q16 16 0 86q40 94 16 142l-180 -40l-16 -15l-63 7l-23 48l15 39l220 39q86 24 78 55l8 157q-70 -32 -141 -32
q-55 -31 -133 -31q-40 8 -47 47l31 63l298 55q24 63 24 165zM479 926l55 8v-8l47 16l47 -8l141 23l24 87q-16 7 7 86l-157 8l-141 -32l-23 -47v-133z" />
    <glyph glyph-name="dollar" unicode="$" 
d="M622 1387q71 0 71 -40l-16 -247l16 -8q24 24 144 -16l103 -64l8 -40l-16 -56h-32q-79 104 -231 112l-39 -159l8 -56l-16 -32v-16l247 -151l39 -72l16 -72q-31 -87 -127 -111l-80 -16l-24 -24q-151 0 -151 -40l8 -24l-32 -223l24 -72l-32 -103h-72l-32 47l24 192
q-16 16 8 199h-183l-96 48q-71 79 -16 119l56 -8l64 -48q127 -31 199 0l16 152l16 16q-16 24 0 111l-48 8l-40 -8q-159 40 -191 88q-32 24 -32 112l24 47q96 96 168 128l63 8l16 16l96 16l24 32l24 119q-16 40 8 48q-24 40 16 88zM406 797l120 8l-8 64q40 16 24 143l-80 -24
l-151 -80l-24 -39l8 -40zM574 414q167 24 247 88q8 16 -24 40l-159 111h-32l-24 -183l-16 -24z" />
    <glyph glyph-name="percent" unicode="%" horiz-adv-x="853" 
d="M268 588zM188 1268zM272 584zM192 1264zM297 1368q126 0 146 -133v-26l-33 -66l-27 -20l-13 -26l-73 -53l-86 20l-33 19q-52 73 -52 100l6 52l46 73q86 79 119 60zM231 1143q7 -13 93 26l39 60q20 39 -39 59l-40 -6l-7 -20q-26 6 -52 -20l-20 -46zM713 1341q34 -6 40 -40
l-26 -59l-73 -79l-106 -152q-39 -86 -112 -198l-7 -33l-59 -100l-7 -33l-72 -145l-27 -106l-13 -6q-59 0 -59 53v39l39 73v20l46 72l40 100l13 6l20 66l145 238l20 53l86 112l79 73zM542 542v-47l26 -19l46 33l14 33l-7 46l-26 20l-27 -7zM462 515l7 60l26 39v20l47 53
l46 26q33 7 66 -19v-14q59 -46 66 -99l-59 -185l-73 -26l-40 13l-66 60z" />
    <glyph glyph-name="ampersand" unicode="&#x26;" horiz-adv-x="1182" 
d="M463 1277q134 -8 165 -53q86 -116 79 -169v-71q-35 -85 -48 -144l-188 -214q79 -89 94 -134q32 -18 32 -44h23l87 188q23 25 85 26l32 -81l-23 -71l-118 -144l39 -25l94 25l165 144q24 18 71 -36v-54l-87 -79h-23q-47 -90 -165 -117l-102 18l-55 54l-60 -48l-81 -86
l-63 -45l-86 -18l-8 9l-47 -19l-71 36l-78 90l-16 45l32 152l54 89l48 71l86 98l-8 37q-133 196 -118 286l55 123l24 9l86 90q16 45 94 62zM424 721l39 32l71 106l31 8q40 147 55 195l-47 74l-125 -17l-134 -155q-8 -40 70 -152l24 -52zM252 217q39 -9 141 28l55 28l8 28
l78 65v36q-110 157 -102 176h-39l-71 -74l-78 -138l-24 -19v-84z" />
    <glyph glyph-name="quotesingle" unicode="'" horiz-adv-x="327" 
d="M149 1405q79 0 86 -71l-7 -102q23 -31 15 -86l-15 -63q31 -55 7 -79q-70 -7 -102 55l-15 220q-16 94 31 126z" />
    <glyph glyph-name="parenleft" unicode="(" horiz-adv-x="752" 
d="M645 1307l40 -32l-8 -24l16 -32l-87 -79l-168 -271l-16 -64l-32 -48l-63 -223l-16 -151l48 -136q47 -24 39 -104q-15 -55 -39 -47q-104 8 -144 342q8 112 48 184q-16 8 8 79l48 112l8 48l24 24q95 255 294 422z" />
    <glyph glyph-name="parenright" unicode=")" horiz-adv-x="700" 
d="M311 1283q64 0 87 -72q104 -247 88 -303q-16 -95 0 -191l-40 -119v-48l-111 -271q16 -24 -40 -88l-88 -95q-24 -16 -72 39l8 64l56 48l16 48l56 88q32 143 72 167q-16 8 32 143q15 152 0 271l-32 80l8 8l-16 64l-16 8v39q-64 72 -8 120z" />
    <glyph glyph-name="asterisk" unicode="*" horiz-adv-x="1144" 
d="M568 752zM576 744zM395 1081q94 -10 94 -31l93 -187l31 -21l52 42q-10 52 115 156h62l31 -42l-21 -73q-114 -135 -103 -145q20 -21 291 -21q104 -73 0 -146l-312 21l-31 -21l72 -166l73 -104v-52q42 -41 42 -83l-52 -62l-83 20l-104 250l-21 10l-42 104l-31 31
q-94 -31 -239 -395q-104 -10 -114 73q-21 31 41 135l73 73q-11 21 31 83l31 21l31 52q-176 10 -270 -31q-83 0 -83 83l10 52l146 21l31 -11l42 21l187 11v41l-42 62v52q-93 104 -31 177z" />
    <glyph glyph-name="plus" unicode="+" horiz-adv-x="1146" 
d="M603 714zM611 706zM620 1248q83 31 114 -115q-21 -135 11 -312q62 -10 263 23l76 -20l4 -55v-31l-42 -21q-281 0 -322 -52q21 -228 0 -260l10 -72q52 -32 31 -146l-52 -52l-62 11l-42 52l-20 207l10 11l-21 125q31 31 -31 145l-198 -31q-20 21 -239 -10q-72 31 -72 72
l10 42q509 62 520 41l31 63l-10 343z" />
    <glyph glyph-name="comma" unicode="," horiz-adv-x="752" 
d="M218 398l71 -6q13 -20 51 -13l20 -32v-109l-52 -142l-19 -19l-58 -122l-13 -6q-25 -71 -57 -90q12 -7 -26 -71l-19 -19q-58 13 -58 51v39l45 51l51 103l13 6l38 90l20 19l19 58q-83 -6 -90 96q19 97 64 116z" />
    <glyph glyph-name="hyphen" unicode="-" horiz-adv-x="1152" 
d="M144 696zM152 688zM114 759l312 -10l406 41q20 31 208 21l52 -52q20 -94 -42 -104l-239 10l-31 -20v10l-302 -42l-10 11l-364 -11l-31 52q-21 94 41 94z" />
    <glyph glyph-name="hyphen" unicode="&#x2010;" horiz-adv-x="1152" 
d="M144 696zM152 688zM114 759l312 -10l406 41q20 31 208 21l52 -52q20 -94 -42 -104l-239 10l-31 -20v10l-302 -42l-10 11l-364 -11l-31 52q-21 94 41 94z" />
    <glyph glyph-name="period" unicode="." horiz-adv-x="752" 
d="M346 289zM354 281zM281 395l114 -31l42 -73v-52q-52 -31 -32 -73q-62 -62 -93 -52q-114 -10 -146 115q-31 145 115 166z" />
    <glyph glyph-name="slash" unicode="/" horiz-adv-x="1122" 
d="M232 312zM240 304zM1008 1175l63 -63v-41l-94 -125l-384 -353q-42 -84 -305 -361l-80 -107l-42 -31q-72 -11 -104 62q-31 104 63 166l301 302l83 93l271 239l114 136z" />
    <glyph glyph-name="zero" unicode="0" 
d="M56 808zM360 712zM368 704zM396 361l103 18l189 68l121 104q52 51 155 344v112q-26 86 -95 146l-120 60q-18 9 -43 -26l-422 -765q0 -9 112 -61zM198 508l26 17l94 189l86 112l155 310l18 8v35q-35 17 -181 -43q-129 -103 -198 -215l-52 -207l17 -146zM783 1437l60 -26
q-8 -51 -51 -69l-18 -60q155 -60 250 -198l34 -137l-17 -130l-94 -249q-78 -138 -190 -207l-180 -94q-61 8 -95 -17h-121l-120 51l-52 -86l-61 -71l-48 80l23 69l43 77l-8 60q-95 138 -95 241l43 224q26 0 26 77l103 138l78 52l8 25q60 69 362 112l77 104z" />
    <glyph glyph-name="one" unicode="1" 
d="M416 312zM424 304zM51 1091l31 41q381 113 402 196q61 0 82 -42l-21 -205l-51 -175l-41 -268v-319q31 -31 20 -72l-20 -72l-41 -31q-93 -31 -103 103q20 62 0 123l20 134q-20 155 0 227l72 339v52l-61 -11l-175 -92q-124 -10 -114 72z" />
    <glyph glyph-name="two" unicode="2" horiz-adv-x="1146" 
d="M272 352zM280 344zM185 1101q0 134 422 268q227 10 247 -196v-103q-31 -123 -72 -175l-31 -20l-10 -41l-391 -484l10 -21l566 21l134 20q51 -20 72 -82q-51 -82 -195 -72q-186 21 -247 -10l-73 10q-195 -41 -339 -41l-72 -31h-113l-11 52l-31 30l165 175q31 72 227 268
l133 216l103 124q93 195 31 247l-144 -11l-247 -134l-41 -61q-93 20 -93 51z" />
    <glyph glyph-name="three" unicode="3" 
d="M192 272zM200 264zM72 1235q0 93 82 93l11 -11l133 52l145 20l20 -20q-10 31 82 31q93 -11 145 -103l-21 -134l-72 -82l-103 -83l62 -41l31 10l103 -92q92 -134 102 -227l-20 -154l-82 -113q-206 -175 -422 -185q-175 20 -227 92q-10 72 31 93q51 0 144 -52
q268 -20 474 258l-11 123q-72 134 -236 154q-206 -10 -217 -30l-10 10q-134 -62 -154 10q-11 83 20 83q83 0 216 82l237 185l41 62l-20 31h-103l-247 -72l-31 -41q-93 0 -103 51z" />
    <glyph glyph-name="four" unicode="4" 
d="M680 1080zM688 1072zM720 1410q42 10 83 -62l-21 -113l-31 -62l-41 -288l-41 -93l-10 -360l41 -175q-31 -72 -72 -61l-62 20l-31 103l10 31l-20 72l10 10l-20 288l-145 -82q-298 -113 -308 185l31 268l61 206l31 41q62 10 83 -31v-93l-83 -350l21 -113q123 -10 370 196
l72 339q42 103 72 124z" />
    <glyph glyph-name="five" unicode="5" 
d="M304 944zM312 936zM463 1400l72 -11l21 21l10 -10l196 10l72 31l10 -10q144 72 165 -62q-11 -52 -31 -52l-124 11l-31 -21l-350 -41l-72 -185v-31l31 -21q113 31 237 -31q195 -175 154 -226l-10 -196l-51 -61l-11 -42l-92 -103h-42q-123 -102 -164 -82q-175 -10 -185 21
l-165 82l-41 72q-11 82 20 82l72 -10q124 -92 206 -103l10 11q31 -21 155 10l72 41l103 144l10 72q41 72 -165 196l-185 -52q-20 -41 -72 -41q-51 0 -62 82v62l31 52q62 380 206 391z" />
    <glyph glyph-name="six" unicode="6" 
d="M336 960zM392 224zM344 952zM400 216zM331 277l160 22l170 53l128 117q11 128 -277 192q-299 -32 -309 -160q0 -192 128 -224zM661 1280q75 21 96 -53l-10 -64l-118 -43l-96 -75l-170 -202q0 -54 -43 -75l11 -11q128 32 266 22l32 -22q43 32 171 -64l75 -74l32 -75
q10 -107 -22 -171l-128 -117q-138 -43 -202 -96q-64 11 -96 -21q-75 21 -150 0q-128 32 -170 106q-64 107 -86 256l11 75l53 75l107 224l267 298z" />
    <glyph glyph-name="seven" unicode="7" horiz-adv-x="1054" 
d="M464 400zM472 392zM53 1216q-10 75 107 64q139 -32 309 32l118 -11l138 32l43 -74l-21 -139l-64 -181l-22 -32q-10 -22 32 -54q86 -42 54 -96q0 -53 -128 -32l-32 -42l-11 -86l-43 -85l11 -32l-21 -277l-32 -32q-128 32 -118 74l43 278l-11 10l54 171l-11 11l-53 -11v11
h-54q-74 -64 -117 -11q-21 139 96 139q117 -11 181 21l96 256v75l-234 -11q-96 -43 -267 -43z" />
    <glyph glyph-name="eight" unicode="8" 
d="M398 932q-95 21 -138 75l-8 8q43 -54 139 -75l181 43l117 74l27 79l-24 88l-96 28q-136 40 -248 -32l-88 -88v-125q43 -54 139 -75l181 43l117 74l32 86l-10 85l-96 21l-267 -10v0l267 10l96 -21l10 -85l-32 -86l-117 -74zM373 309q256 0 342 43l149 85l11 32v128
l-75 118q-64 85 -171 106q-85 -21 -96 0l-213 -117q-107 -96 -149 -203q-11 -128 202 -192zM57 527l22 85l85 139l85 74v22q-170 117 -85 362q64 128 341 182q150 0 246 -43l85 -117q11 -192 -21 -203l-32 -64l-54 -53l11 -22q85 -21 139 -96l106 -181q22 -107 0 -213
l-42 -64q-118 -107 -491 -160h-117l-128 53q-86 53 -128 160z" />
    <glyph glyph-name="nine" unicode="9" 
d="M640 560zM761 1016zM648 552zM769 1008zM256 768l192 11l171 64l85 106q21 192 64 214l-11 64l-96 64l-32 -11q-74 53 -277 -32l-96 -75l-85 -213l32 -149zM75 885v118l21 21q-32 32 32 149l181 182l192 53l107 -32q224 43 288 -224l-85 -341q-75 -192 -107 -352
q21 -54 -11 -150q32 -85 22 -224l-32 -21h-54q-74 43 -64 96l11 384q32 -11 32 160h-43q0 -21 -224 -85q-245 42 -266 266z" />
    <glyph glyph-name="colon" unicode=":" horiz-adv-x="572" 
d="M184 728zM228 595q118 25 150.5 -71.5t-31.5 -198.5l-91 -41q-107 21 -133 125q17 154 105 186zM254 1125q101 0 156 -122q8 -83 -28 -121q-18 18 -74 -47l-46 -9q-82 -10 -128 94q-17 138 120 205zM188 724z" />
    <glyph glyph-name="semicolon" unicode=";" horiz-adv-x="468" 
d="M346 1099zM336 8zM354 1091zM344 0zM216 744l55 -8l55 -51q-9 -37 15 -52l-8 -73q-55 -67 -85 -52q-125 7 -125 74q-7 58 16 80l15 8l32 59zM179 324h69l70 -45l23 -89v-133l-23 -96l-77 -148l-39 -37q-55 -15 -78 37v52q55 22 117 229l-8 15l-93 22q-46 52 -32 126z" />
    <glyph glyph-name="less" unicode="&#x3c;" horiz-adv-x="636" 
d="M515 1283h38l31 -52l-7 -82l-47 -20l-244 -290q-46 -84 -68 -84l-24 -71q15 -31 161 -83l130 -124q15 30 99 -83q15 -72 -31 -103h-45l-69 92l-92 73q-198 114 -252 104l-45 71l7 63q53 61 45 83l245 289l15 41q62 42 153 176z" />
    <glyph glyph-name="equal" unicode="=" horiz-adv-x="1298" 
d="M416 960zM456 424zM424 952zM464 416zM780 1060l10 -10l374 31q11 -93 63 -73l-21 -72l-166 10l-458 -42l-31 -20l-83 10q-260 -73 -270 21q-21 73 41 93q125 -20 541 52zM457 478l52 -10l208 41h115l31 21q281 11 312 31l62 -31l-10 -62h31q10 -63 -62 -73l-136 21
l-166 -11l-42 -20l-249 -11l-31 -21q-177 0 -406 -83q-93 11 -104 63l21 72l115 32l62 -11l62 31q135 -10 146 21h-11z" />
    <glyph glyph-name="greater" unicode="&#x3e;" horiz-adv-x="574" 
d="M96 1352q78 -37 92 -68l71 -95l113 -116h14l114 -190l-7 -93l-64 -64q-50 -116 -78 -137l-71 -116l-28 -63l-36 -84l-21 -43q-64 -21 -71 54l7 73l156 305l92 127q14 10 0 62l-56 74q-29 -10 -171 158q-88 144 -56 216z" />
    <glyph glyph-name="question" unicode="?" horiz-adv-x="716" 
d="M288 1416l145 9q128 0 192 -185q-7 -158 -48 -195l-88 -130l-264 -205l-17 -112l53 -114l-45 -100q-88 10 -104 66l-32 115q-7 126 16 191l81 65q15 47 166 160l117 127q46 99 18 181l-109 8l-117 -81l-68 -79q-15 -18 -58 -11l-30 49v55q88 122 192 186zM239 276h65
l52 -46q11 -84 -31 -121q-86 -29 -117 64q-10 76 31 103z" />
    <glyph glyph-name="at" unicode="@" horiz-adv-x="1578" 
d="M789 1379q319 39 406 -407q-16 -24 8 -72h-8l8 -199l-40 -127l-63 -120l-223 -247l-88 -72h-24l-96 -55q-63 0 -135 -40q-48 16 -64 -8q-143 32 -223 135l-104 200l-23 127l23 207q16 16 64 168l24 24q-16 15 0 39l72 152l95 103q64 24 72 56l144 72l63 8q40 40 112 56z
M422 159h136l87 48l80 16l247 215l80 128v32q-104 -16 -175 79l-16 -16l-40 -143l-80 -112l-48 -31q-111 -8 -119 -24l-88 32q-111 103 -103 239l7 87q56 128 120 191l159 72q112 8 184 -16l71 -63l32 -64q-24 -48 24 -104q120 -8 128 207l-24 152l-80 143l-119 56l-136 -8
q-8 -24 -48 -24l-24 -24l-135 -48l-104 -71q-71 -96 -151 -287l-64 -231v-176l72 -143l48 -64zM534 470l135 8l72 80l80 271v40l-88 24q-119 0 -175 -64l-88 -152l16 -151z" />
    <glyph glyph-name="A" unicode="A" horiz-adv-x="1208" 
d="M776 1608v0v0zM872 1680zM334 554v-27l62 -17l307 9l-17 114l-18 9l-26 149l-62 185h-17l-167 -334zM580 1187q35 0 70 -44l71 -229v-70q79 -167 52 -202l36 -62q70 -228 114 -316q-18 -27 44 -88v-114l-35 -18q-35 -9 -71 53l-79 237q-9 53 -88 70l-52 -8l-378 17
q-106 -220 -150 -404q-35 -18 -70 0q0 53 -35 79l35 61q-18 9 35 123l35 44l71 176l35 44v27l26 26q26 105 62 149l26 27l18 61l87 132l44 97l27 17l35 97zM880 1672z" />
    <glyph glyph-name="B" unicode="B" horiz-adv-x="1159" 
d="M460 1168zM416 1312v0v0zM220 670q67 -10 287 105l268 172l115 134l-10 58l-67 19q-114 -19 -191 0l-277 -67l-96 -67l-38 -258zM239 124l173 29l28 29l77 9l191 96l96 77l9 -10l29 10l96 115q9 66 -19 66l-96 39l-211 19l-38 -19l-9 9l-268 -38l-10 -19l-76 -19
l-10 -172q0 -163 38 -221zM469 1235l38 -10q29 48 287 29l48 -29q105 19 134 -115q19 -76 -38 -153q-125 -134 -287 -230l19 -19q220 10 335 -115q48 -48 29 -172l-87 -115l-67 -28l-76 -67l-421 -192l-58 10l-19 -19l-9 9q-153 -29 -163 19q19 29 -38 134l-10 354l-19 39
l29 105q-19 9 9 134l-9 38l38 259q10 28 182 95z" />
    <glyph glyph-name="C" unicode="C" horiz-adv-x="1417" 
d="M1112 1288l72 -88l32 -48q2 -66 -31 -105h-67l-62 49l-104 32l-277 -93q-155 -118 -354 -351q-155 -286 -144 -324q-33 -39 67 -130l121 -39l255 13l166 52l44 -13l277 104l66 51h45l133 52l-23 -64l67 -52q-33 -66 -111 -78l-33 12l-487 -181l-321 -39h-155l-144 66
q-89 77 -89 220l22 156l78 181q100 155 165 241q67 70 300 238h33l78 66l210 65q75 7 171 7z" />
    <glyph glyph-name="D" unicode="D" horiz-adv-x="1256" 
d="M448 1136zM205 258l189 22l132 66q78 89 111 89l100 122l66 155q11 143 -66 254l-73 54l-168 36l-257 -12q-34 -22 -45 -177zM268 1192l297 4q188 -67 210 -100v-22l100 -100l55 -188v-122q-44 -66 -44 -144l-100 -133l-122 -121l-177 -111l-277 -111l-33 -11l-77 22
l-34 89l11 199l-22 222h11q-10 223 10 415l1 138q34 33 191 74z" />
    <glyph glyph-name="E" unicode="E" horiz-adv-x="1137" 
d="M296 1080zM824 1224l43 -10l195 43l43 -87q22 -43 -43 -86l-195 10l-54 -21l-141 -11v11l-336 -54l-76 -33l-11 -195l11 -76h76q65 44 184 44l11 -11l130 21v-10q238 21 271 -11v-44l-119 -10l-22 -33l-195 -22l-76 -32q-162 0 -282 -98l-10 -303l97 -11l228 54
q195 0 336 44v-11l43 11l11 -44v-32l-33 -33q-336 -86 -455 -86q-22 -33 -260 -76q-108 0 -130 54q22 22 0 292l43 380l-10 54l21 282q22 54 87 75q22 -21 206 0l119 33l303 32h-10zM300 1076z" />
    <glyph glyph-name="F" unicode="F" horiz-adv-x="1075" 
d="M400 1212zM936 1336l72 -64l-39 -72q-77 22 -275 0l-22 -22q-44 11 -342 -77l-66 -44v-176l-22 -33v-99l617 77q0 -66 44 -99q-11 -55 -77 -55q-66 22 -220 0l-44 -22q-232 -11 -331 -77l-55 -364q33 -121 -33 -165q-99 -22 -99 55v154l66 408q-11 143 22 165
q-22 77 0 341l22 55l44 22l77 -33l33 22l254 44zM404 1208z" />
    <glyph glyph-name="G" unicode="G" horiz-adv-x="1385" 
d="M944 1348zM757 1390l11 -10q216 86 345 -87v-97l-22 -10h-43l-54 75l-118 32l-173 -43l-129 -75l-259 -280q-86 -130 -140 -388l11 -162l54 -119l86 -32l194 11l216 95l108 45l128 31l33 174q43 140 54 258q-11 22 -172 -43q-227 -54 -313 -32l-32 54l21 65
q421 43 593 97l43 -11q33 -54 33 -108l-33 -151l-43 -75q-108 -388 -140 -388l-124 -8q-70 -25 -156 -52l-76 -28q-237 -128 -442 -53q-129 97 -172 291q-11 259 21 302l65 184l205 269l237 194h32zM948 1344z" />
    <glyph glyph-name="H" unicode="H" horiz-adv-x="1340" 
d="M796 260zM981 1358q75 -21 65 -86q-22 -226 -54 -270l-11 -172l-76 -280q-43 -259 -43 -442l-54 -33q-43 0 -86 97l11 248l32 173l-151 21q-21 -21 -129 0q-11 -32 -183 -32l-65 -54l-43 -431q-22 -54 -65 -65q-64 0 -86 87l86 539q97 226 151 625q22 86 54 97
q65 10 86 -65l-54 -388l-53 -172l21 -22l474 11l33 97l75 452l76 65h-11zM800 256z" />
    <glyph glyph-name="I" unicode="I" horiz-adv-x="1250" 
d="M256 132zM334 1261l194 -11l162 22v-11q151 32 345 22l43 -22l97 11l21 -22l-10 -64q-302 -65 -475 -54q-64 -22 -43 -97l-54 -227v-75l-118 -474v-33l43 -21q43 21 321 31q132 1 153 -53l-43 -64l-388 -33l-43 -21q-162 10 -162 -22l-161 11q-120 -6 -162 43v43l75 43
l194 11l54 22q-11 64 22 86q-22 21 11 269l64 248l33 216l-11 75l-33 -11q-161 0 -161 54q-11 97 32 108zM260 128z" />
    <glyph glyph-name="J" unicode="J" horiz-adv-x="1208" 
d="M424 1216zM550 1283q43 -22 248 0l355 43l22 -11l-11 -108l-32 11l-280 -32l21 -378l-11 -388l11 -21q-32 -22 -32 -140l-76 -108q-161 -151 -194 -140q-183 11 -194 32h-108l-215 140l-22 43q-10 65 33 87h54l172 -108q172 -65 313 -11l86 86l54 140q-22 65 11 259
q-33 140 -33 485l-32 22l-32 -22l-345 -43l-33 54q-11 65 22 75zM428 1212z" />
    <glyph glyph-name="K" unicode="K" horiz-adv-x="1179" 
d="M540 968zM561 1046l15 6l232 91h44l32 -44l-11 -75l-205 -65l-86 -64l-237 -97q-43 -33 11 -76l194 -151q291 -312 463 -377q22 -140 -11 -151l-86 11l-54 54l-118 64l-302 302l-65 33l-75 75l-97 65h-22l22 -237q-33 -130 21 -216l-43 -86q-86 11 -118 108l-22 334
l11 452l21 87l-10 43l10 151l33 43q97 32 108 -108l-22 -302l22 -11l161 44l194 97h-10zM544 964z" />
    <glyph glyph-name="L" unicode="L" horiz-adv-x="1037" 
d="M204 1148zM216 1229l75 -65v-162l-86 -636l11 -161l32 -11q108 22 129 0l140 32l335 22l43 -54q0 -97 -54 -97l-121 7l-544 -40q-111 -53 -133 11l22 194q-22 130 0 302l32 87l32 258l-10 11l43 259zM208 1144z" />
    <glyph glyph-name="M" unicode="M" horiz-adv-x="1501" 
d="M1324 320zM1208 1248q71 0 83 -47q59 -224 45 -485l37 -245q71 -165 82 -247q12 -95 -35 -142h-70q-118 18 -201 777l-70 -94l-83 -200l-129 -177l-82 -176l-59 -24q-94 -11 -94 24q-24 212 -201 706l-70 -129l-71 -342l-70 -153q-12 -188 -47 -247q-83 -47 -106 47
l47 294l35 59l118 424l59 177l94 188l23 12l94 -59q36 -24 118 -483l35 -59l36 -141l23 -23l165 223l200 412l106 130h-12zM1328 316z" />
    <glyph glyph-name="N" unicode="N" horiz-adv-x="1307" 
d="M1000 332zM1059 1318l71 -82l-24 -271q24 -94 -11 -435l11 -83q-35 -94 -23 -200l-47 -59l-83 24q-58 82 -129 118l-483 600q-35 -35 -47 -165l12 -47l-71 -353l-11 -259l-36 -47q-106 -35 -117 70q-12 212 23 365l24 47l11 153l95 471l35 36q82 11 118 -24l82 -94
l47 -106l35 -24l24 -58l318 -377l59 -47l47 165v353l-24 117q35 36 24 177zM1004 328z" />
    <glyph glyph-name="O" unicode="O" horiz-adv-x="1380" 
d="M80 745zM628 1244zM388 188q71 -23 283 47q153 83 212 177q70 141 82 141l71 283l-36 188l-82 106l-176 12l-24 23l-247 -35q-94 -71 -141 -153l-142 -365q-23 -118 59 -330q47 -58 141 -94zM553 1318h200l212 -70l118 -106q82 -130 73 -278l-3 -181q-21 -103 -70 -224
l-35 -35q-12 -84 -201 -271l-282 -129q-77 -16 -188 -12q-281 88 -330 400l12 294l35 47q24 153 153 353l94 106z" />
    <glyph glyph-name="P" unicode="P" horiz-adv-x="1142" 
d="M188 572zM192 568zM777 1424v-12q35 24 211 -58l59 -59l59 -130q12 -106 -35 -247q-35 -82 -212 -259l-212 -129q-247 -83 -365 -71l-47 -47l-23 -306l-24 -59l-23 -12l-95 47l-23 95l82 753l59 223q12 39 24 95q35 58 82 70l212 71q78 11 153 35h118zM396 612h71l24 35
l129 24l271 188l94 141l23 106q8 114 -52 154l-124 35q-408 -19 -459 -130l-94 -435v-94z" />
    <glyph glyph-name="Q" unicode="Q" horiz-adv-x="1264" 
d="M884 132zM1092 564zM435 235h154q63 29 141 36q190 53 270 212l24 176l20 81l4 190l-71 118q-59 70 -318 105q-200 0 -306 -153l-47 -58l-94 -318v-189l59 -117zM668 1336q124 8 192 -24l96 -36q76 -68 162 -193v-47q83 -177 71 -224l-47 -329l-71 -189l-106 -82l24 -165
l212 -518l-24 -70q-71 -12 -82 23l-24 71l-47 59l-36 88l-93 206l-39 70q-20 83 -79 153q-306 -82 -365 -70l-188 82q-130 106 -165 306v212l47 188q71 95 59 142q106 164 223 235q224 118 280 112zM1096 560z" />
    <glyph glyph-name="R" unicode="R" horiz-adv-x="1320" 
d="M592 1204zM572 1284l150 23h235q130 -35 171 -79q77 -74 65 -98l-12 -129l-59 -94q-118 -106 -518 -271l59 -59l283 -141l54 -40l75 -42l73 -50q104 -33 139 -162q-12 -59 -119 -58l-670 423q-176 82 -223 70q-71 -200 -106 -494q-137 -47 -130 106l36 306l117 341
q12 153 24 218t47 147l71 35l82 12zM337 730l189 23q11 24 212 83l235 106l79 98l-8 64l-130 61l-129 -12q-145 -5 -377 -82l-82 -282z" />
    <glyph glyph-name="S" unicode="S" horiz-adv-x="1225" 
d="M528 1016l200 176zM508 1104zM730 1189q86 19 176 0l177 -47l59 -106q-12 -59 -36 -59h-58l-71 71l-153 23l-294 -59l-177 -59l-82 -58q-63 -91 11 -165l518 -106l283 -106q176 -130 35 -294q-141 -130 -634 -192q-202 3 -356 4l-69 46q0 130 59 118l270 -23l271 23
l118 35q141 12 223 101v64l-129 59l-118 24l-188 11l-165 47q-32 7 -106 24q-106 35 -176 165q-90 398 612 459zM512 1100z" />
    <glyph glyph-name="T" unicode="T" horiz-adv-x="1453" 
d="M708 700l12 32zM459 1153q165 24 277 27l592 36l56 -48q5 -85 -148 -85q-288 -15 -400 -35q-71 -412 -59 -507l-12 -129l-9 -140l-3 -154q-23 -83 -59 -83q-82 0 -117 106q3 139 0 200q39 279 70 554q36 35 24 129l-24 24l-207 -32l-311 -51l-58 59q0 94 58 94l263 42z
" />
    <glyph glyph-name="U" unicode="U" horiz-adv-x="1328" 
d="M160 1488v0v0zM208 1264l72 -64q-56 -200 -56 -400l11 -435l36 -106l106 -59h164l165 82q247 224 318 636l-24 259l56 63l74 -39l23 -306l-94 -377l-94 -188l-141 -165l-47 -12l-83 -59l-94 -12l-23 -35l-83 -35q-82 -12 -106 23l-47 -11l-188 117q-94 153 -94 353
q-12 518 82 707z" />
    <glyph glyph-name="V" unicode="V" horiz-adv-x="1203" 
d="M788 804zM952 1208l104 40l40 -88l-32 -88l-40 -80q-48 -104 -141 -250l-67 -102l-108 -140l-167 -229q-82 -236 -129 -236q-106 -23 -153 153l-12 94q-47 59 -106 365l-47 106l12 12q-35 130 -58 363l8 128l96 24l56 -136l33 -196l41 -277l95 -283h58l236 318l153 330z
M792 800z" />
    <glyph glyph-name="W" unicode="W" horiz-adv-x="1745" 
d="M1276 540zM659 1106q71 12 94 -35l71 -200l-12 -12q177 -412 271 -506h35l271 612l47 200l35 59q177 224 118 -106l-200 -447l-130 -389l-106 -211h-82l-71 70l-211 377v47l-106 212l-36 35q-188 -294 -400 -777q-129 -35 -153 36l-47 341l24 718l47 82q106 12 106 -117
q-24 -365 0 -695q35 -12 164 212q71 177 271 494zM1280 536z" />
    <glyph glyph-name="X" unicode="X" horiz-adv-x="1140" 
d="M764 388zM1072 1216l48 -64q-2 -69 -37 -81l-200 -188l-224 -247v-36l365 -365q47 -153 -47 -164q-47 -12 -94 35l-71 106l-271 271l-47 11l-294 -412q-59 -58 -118 -23q-35 12 -35 82l24 83l106 153l176 176l59 83l-247 364q-12 83 23 118q71 12 94 -23
q201 -248 212 -306l71 -36l129 142l83 105l188 153zM768 384z" />
    <glyph glyph-name="Y" unicode="Y" horiz-adv-x="1168" 
d="M636 1004zM809 1393l61 -52l-10 -71l-82 -113l-20 -72l-205 -317l-123 -225l-10 -62l-51 -71l-11 -62l-41 -61l-41 -195l-40 -31q-113 0 -103 52v51l62 133l30 123l41 61l21 82q102 154 82 225q-123 236 -174 277v41l-144 215v82l21 20q41 31 112 -61l246 -430l31 -31
l31 10l256 441l71 41h-10zM640 1000z" />
    <glyph glyph-name="Z" unicode="Z" horiz-adv-x="1151" 
d="M228 308zM773 1225q131 -10 291 30q40 -10 50 -60v-51l-80 -50l-60 -70q-121 -80 -372 -331l-10 -30l-70 -61l-10 -30l-131 -150l-130 -191l10 -10l803 70l60 -80l-30 -70l-140 20l-40 -20l-121 10q-241 -31 -251 -20l-100 -31l-10 10l-161 -30l-10 -20l-10 10l-171 -10
l-40 40l20 111l81 110l40 30l150 221l342 382l150 130l-10 20q-110 10 -110 -20l-71 20l-30 -20q-60 40 -361 -80l-60 80q30 81 110 81zM232 304z" />
    <glyph glyph-name="bracketleft" unicode="[" horiz-adv-x="1064" 
d="M368 1144zM376 1136zM1001 1161l23 -57l-46 -34l-341 22q-205 -45 -239 -11q-23 -46 -79 -46l-35 -250q35 -45 -22 -273q22 -46 0 -558q11 -34 68 -45l159 23q194 -23 205 0q80 -46 125 0q103 -34 114 -80q23 -80 -46 -102l-238 34l-114 -23l-125 11l-205 -56
q-91 -35 -125 125l22 45l-11 23l23 91l23 546q-23 23 11 148l-11 193q34 57 22 217q409 168 842 57z" />
    <glyph glyph-name="backslash" unicode="\" horiz-adv-x="924" 
d="M173 1168h24l58 -49v-17l41 -49l247 -428l57 -66l83 -164l82 -91l33 -57q8 -66 -25 -91h-49l-58 50l-33 90l-115 197l-156 223l-82 164q-25 8 -83 148l-57 74q0 49 33 66z" />
    <glyph glyph-name="bracketright" unicode="]" horiz-adv-x="1224" 
d="M264 -368v8v-8zM410 1149l136 -11q12 34 569 23l23 -69l11 -193q23 -125 0 -797l23 -318q-11 -46 -68 -57q-137 -57 -660 -125l-91 -12q-129 -6 -194 -45l-79 45v91l34 46q23 -23 170 0l160 23l227 68l205 34q23 34 62.5 28.5t74.5 130.5l-12 558l23 148l-34 330l-62 1
l-160 16l-142 -40l-103 11l-68 -34l-34 12q-57 -35 -148 -35l-57 69q0 102 194 102z" />
    <glyph glyph-name="asciicircum" unicode="^" 
d="M480 1344l88 -72q32 -104 64 -192l74 -200l45 -65v-51l-19 -13q-45 -6 -64 13l-90 160l-82 180l-40 80q-72 -48 -208 -224l-94 -164q-58 -13 -64 51l19 52l115 213l96 104q72 62 160 128z" />
    <glyph glyph-name="underscore" unicode="_" 
d="M136 -134l260 10l288 12q104 13 270 7l46 -29q19 -52 -37 -58l-219 -8l-19 2v6l-277 -17l-320 -6l-72 31q25 50 80 50z" />
    <glyph glyph-name="grave" unicode="`" horiz-adv-x="622" 
d="M273 1617q89 0 98 -77l3 -78q15 -66 6 -127q18 -129 -9 -154q-80 -9 -114 60l-18 239q-18 104 34 137z" />
    <glyph glyph-name="a" unicode="a" horiz-adv-x="1268" 
d="M712 536zM199 207l-43 26v104l51 147l113 173q216 198 330 171l33 -24l-61 -165l-112 -190q-61 -86 -190 -198zM156 337v-104l43 -26l121 44q129 112 190 198l112 190l43 156l18 9v34q-147 17 -363 -181l-113 -173zM43 216q9 173 26 199l95 190l147 164q199 147 337 156
q112 34 162 -55l12 -56l-40 -142q-26 -90 -13 -162l17 -225l18 -60q34 -9 77 26l139 95l147 121l60 -9l-9 -43l-302 -277l-78 -103h-69q-60 34 -86 172l-35 268l-190 -250l-138 -113q-190 -69 -277 104zM199 207l121 44q129 112 190 198l112 190l43 156l18 9v34
q-147 17 -363 -181l-113 -173l-51 -147v-104z" />
    <glyph glyph-name="b" unicode="b" horiz-adv-x="945" 
d="M136 640zM144 632zM311 153q112 -8 268 165l95 155l26 138q0 70 -35 78l-77 -9q-303 -112 -312 -259q17 -34 -8 -103l17 -147zM288 1304q88 124 65 -110l-44 -492l18 -17l34 8q121 121 303 104l95 -61l43 -95q26 -216 -199 -466q-164 -156 -337 -139q-86 9 -95 303
q13 77 0 173l13 116l22 169l17 43q26 363 65 464z" />
    <glyph glyph-name="c" unicode="c" horiz-adv-x="1014" 
d="M592 944zM600 936zM160 461l8 -142l54 -80l150 -53l89 18l9 -9l115 27l169 106q26 106 88 80q53 -27 62 -89q-248 -195 -399 -239h-177l-35 18l-18 -9l-89 53q-151 159 -133 177q-18 89 36 248l35 36l62 106l133 133q80 71 266 80q124 9 142 -27q89 -62 115 -168l-17 -62
h-54l-26 27q-27 168 -195 159l-54 -35l-62 -9l-195 -160z" />
    <glyph glyph-name="d" unicode="d" horiz-adv-x="1141" 
d="M840 448zM840 432h8h-8zM848 440zM239 168q18 -17 213 36q27 27 124 62l151 106l44 71l-9 27l18 124l-35 89q35 150 -107 195l-124 -18l-97 -71l-71 -97l-53 -27q-89 -124 -151 -319v-98q44 -53 97 -80zM895 1463q71 -53 63 -80l-18 -222q18 -53 0 -221l-45 -284
q-17 -115 9 -124q-35 -98 -9 -266l-44 -44h-62l-27 35l-35 -9l-71 -62q-35 18 -71 -44h-35q-187 -115 -328 -89l-98 62q-89 124 -80 151v115l80 186l151 222l106 89l178 88q88 -17 106 0l62 -35l71 -71l27 9l-9 62q44 461 26 470q9 44 53 62z" />
    <glyph glyph-name="e" unicode="e" horiz-adv-x="1117" 
d="M184 536zM224 608l80 8l86 60l98 12l221 100l18 74q27 55 -53 68h-107q-62 -25 -97 -56h-27l-107 -106l-64 -56zM567 1062q249 33 249 -167l-36 -192l-26 -39h-54l-115 -32q-151 -80 -204 -71l-186 -105q-44 -167 195 -246l27 8l88 -16l151 56q80 72 124 -17l-35 -55
q-45 -8 -98 -56l-80 -8l-53 -24h-115l-18 16q-53 -8 -150 56l-89 80q-53 63 -71 222l27 72l-9 32q26 8 26 80q98 159 124 159l9 24l142 136l89 56z" />
    <glyph glyph-name="f" unicode="f" horiz-adv-x="1317" 
d="M700 1348zM1128 1532q109 -113 127 -229l-44 -53l-45 18l-44 133l-36 35q-17 -9 -70 27l-169 -53l-71 -54l-106 -159l-98 -328l-17 -18l8 -18q-26 -44 -26 -133q103 4 183 24q96 12 171 38l54 -62l-21 -48q-77 -40 -307 -49q-54 -44 -80 -27q-45 -26 -53 -97l-27 -390
l9 -54l-9 -88l-9 -178l-18 -35h-62q-16 26 -44 53l27 408l17 80l-9 106l18 142l-9 9l-274 -71q-45 -9 -54 53l9 36l27 17l80 9l212 62l45 45l35 150v54l27 44l53 195l27 35l53 142q62 116 204 195l152 54zM704 1344z" />
    <glyph glyph-name="g" unicode="g" horiz-adv-x="972" 
d="M404 -360zM674 506l-142 -134q-124 -79 -284 -79q-115 62 -92 147l48 119q62 97 162 159l193 62l109 -48l26 -64l6 -118zM160 399q-27 -44 88 -106q160 0 284 79l151 133l17 45v124l-26 62l-115 44l-196 -62q-97 -62 -159 -159zM62 337v113q0 91 98 215l168 124l168 71
q107 9 178 -18l106 -80q45 -44 53 -168l18 -319q27 -373 -89 -532q-35 -53 -177 -151l-121 -40q-80 -12 -134.5 -8t-131.5 14l-92 8l-53 53q-18 62 36 88q17 -26 142 -26l257 9l106 44l89 106l44 125q5 231 -7 323l-28 93l-151 -124l-169 -71q-266 -53 -310 151zM248 293
q160 0 284 79l151 133l17 45v124l-26 62l-115 44l-196 -62q-97 -62 -159 -159l-44 -160q-27 -44 88 -106z" />
    <glyph glyph-name="h" unicode="h" horiz-adv-x="1119" 
d="M520 1104zM528 1096zM206 134q18 -62 -36 -98q-72 -18 -98 71l26 412l-9 27l27 152l-9 62q18 36 53 288q24 128 40 224l32 72h80l-17 -155l-71 -429l9 -27q-27 -196 -18 -259h26l206 286l116 54q0 36 90 45q134 0 152 -81l18 -89q-18 -135 36 -528l-27 -36
q-108 -9 -108 27l-26 206q17 223 0 375q-135 9 -242 -125l-116 -188l-27 -9z" />
    <glyph glyph-name="i" unicode="i" horiz-adv-x="628" 
d="M168 256zM160 248zM160 256zM313 1341q54 9 72 -62q-36 -152 -21 -267l-28 -48l-50 -7q9 18 -27 45l9 286q18 45 45 53zM197 805q62 18 80 -45l-9 -107l-44 -107q17 -18 -9 -81q18 -54 0 -116l18 -108l35 -17l81 17l152 126l45 -36l-9 -63q-135 -179 -233 -179
q-54 -26 -179 54q-53 107 -45 179l9 206l18 26l45 197z" />
    <glyph glyph-name="j" unicode="j" horiz-adv-x="975" 
d="M112 -348zM808 1233l53 -45q-17 -108 0 -179q-26 -107 -62 -152q-72 18 -63 71l9 224q45 89 63 81zM761 724q43 9 50 -53q7 -90 -14 -134l7 -36l-14 -233l-44 -196l-7 -45q7 -116 -14 -197l-15 -18l-7 -53l-78 -224l-65 -89l-72 -45q-157 9 -164 27l-172 107
q-29 45 -86 63l-21 44q7 81 21 81l50 -9q43 -63 201 -161l71 -18q86 -27 151 63q93 241 98 310q12 88 24 181l49 394q-7 206 51 241z" />
    <glyph glyph-name="k" unicode="k" horiz-adv-x="1061" 
d="M288 1072zM296 1064zM384 1364l72 -64l-42 -159q-18 -104 -47 -132l-47 -329l123 19q187 94 187 75l47 29l104 28l9 -10q85 29 94 -28q0 -66 -37 -56q-57 19 -76 0l-75 -57h-47q-28 -37 -263 -112l113 -179l131 -122l160 -94q104 9 141 -28q9 -85 -28 -85l-160 10
l-103 37l-75 57l-10 -10l-18 28l-132 94l-85 123l-47 28l-18 -291q-29 -29 -85 -19l-28 84q0 432 84 592l-9 38l19 37l-10 19l85 376z" />
    <glyph glyph-name="l" unicode="l" horiz-adv-x="812" 
d="M150 303l-14 1zM296 1464l5 -158l-47 -282q18 -66 0 -178l-38 -188l9 -66l-28 -94l10 -235l84 -66q94 19 151 0q47 38 206 47q19 47 113 28q9 -37 -28 -75q-207 -122 -376 -131l-160 19q-94 56 -112 150l-19 141l9 84q-19 19 10 75l-10 38q28 0 28 113l38 470l47 178
l20 106z" />
    <glyph glyph-name="m" unicode="m" horiz-adv-x="1412" 
d="M1200 488zM1208 480zM592 968q75 0 103 -38l19 -131l-19 -235l19 -75l38 9q75 122 103 131q-9 19 141 198l131 103q85 28 122 -94l19 -216l-19 -470q29 -75 -28 -122q-131 -9 -112 169l28 385l-10 179q-28 19 -94 -47l-9 -47l-85 -122q-112 -94 -178 -235l-28 -150
q-38 -104 -104 -94q-47 28 -56 94l9 610q-18 10 -75 -65l-188 -273l-141 -347q-37 -47 -103 18l57 470q37 38 37 273l66 131q56 9 75 -66q-38 -131 -38 -310q19 -9 113 104q104 169 207 263z" />
    <glyph glyph-name="n" unicode="n" horiz-adv-x="959" 
d="M728 480zM736 472zM695 958q113 0 113 -122q-28 -329 28 -658l-47 -75l-75 19q-56 66 -47 169l9 10q-18 244 10 432l-10 75l-56 -9l-85 -123l-56 -84l-235 -385l-47 -151q-28 -47 -94 -28l-37 75l9 10l-9 112l75 630l37 37l66 -46q-19 -94 0 -141l-19 -123
q-28 -28 -29 -194q67 63 76 91l188 310l113 122q47 0 66 38l66 9h-10z" />
    <glyph glyph-name="o" unicode="o" horiz-adv-x="963" 
d="M534 178zM319 169q47 19 66 0l57 19l140 103q94 104 113 179l57 253q9 19 -66 151l-66 28l-131 -10l-132 -93l-9 -38l-104 -94l-56 -132q-10 -150 19 -272q18 -56 112 -94zM188 535q-10 -150 19 -272q18 -56 112 -94q47 19 66 0l57 19l140 103q94 104 113 179l57 253
q9 19 -66 151l-66 28l-131 -10l-132 -93l-9 -38l-104 -94zM56 395q0 137 29 225l93 150l138 166l144 88h85q59 -4 131 -28l66 -38q85 -66 104 -216l-10 -216l-66 -178l-56 -104l-113 -112q-94 -85 -122 -85q-113 -19 -141 -19q-40 10 -94 19q-164 49 -188 348zM275 163
q-94 38 -112 94q-29 122 -19 272l56 132l78 99l35 33l132 93l131 10l66 -28q104 -86 96 -246l-40 -156q-28 -96 -148 -208l-106 -92q-110 -8 -169 -3zM536 176z" />
    <glyph glyph-name="p" unicode="p" horiz-adv-x="1141" 
d="M232 368zM240 360zM376 413l169 19l188 113q103 122 150 254l-19 131l-75 -9l-9 -29q-94 66 -188 -28l-188 -188q-28 -65 -28 -141l-85 -46l10 -38zM301 1015q47 -10 47 -29l-19 -159l9 -38h28l188 188l94 47q28 -9 94 28q169 19 188 0l47 -84l19 -85q9 -178 -19 -207
l-122 -187q-103 -113 -329 -198q-225 19 -263 -9l-28 -216l-28 -19q18 -94 0 -160l-19 -75l9 -169l-28 -66q19 -28 0 -66l-56 -46q-47 9 -57 103q-9 75 19 113q-9 225 19 338l19 56q37 357 84 564q-19 19 0 122l38 197z" />
    <glyph glyph-name="q" unicode="q" horiz-adv-x="1141" 
d="M728 944zM736 936zM216 357h141l113 66l103 112l59 61q20 56 35 137v37l-38 38l-103 19q-225 9 -348 -292l6 -99zM68 504l57 207l141 150q150 76 225 76q75 18 216 -47l28 169q47 56 94 37l29 -103l-38 -282l-19 -47l10 -47q-66 -272 -57 -357l-28 -94l-9 -150l-19 -28
l9 -28l-19 -282l10 -19l28 9q141 151 188 160q56 9 66 -56l-19 -57l-244 -244l-29 -9q-103 -10 -131 65l9 29q-28 140 66 864l-47 -28l-178 -132l-170 -28q-159 56 -169 272z" />
    <glyph glyph-name="r" unicode="r" horiz-adv-x="1020" 
d="M568 928zM264 1096q48 -128 8 -304l56 4q160 172 320 260q232 120 232 -104l32 -240q-144 -44 -136 94t-119 103l-209 -169l-128 -112l-48 -116l-40 -148q0 -104 -48 -256q-72 -38 -116 50q-11 109 56 474q21 136 36 392z" />
    <glyph glyph-name="s" unicode="s" horiz-adv-x="921" 
d="M160 240zM168 232zM498 1011q135 0 202 -44q93 -79 85 -132l-9 -79l-17 -18h-25l-25 26q17 150 -211 159l-135 -62l-25 9l-160 -141v-53l67 -35q371 -18 438 -53q127 -97 119 -132q17 -44 -9 -88l9 -115q-237 -185 -439 -203l-109 18q-17 -18 -68 0l-93 53l-25 44
q-8 80 59 88h42q34 -70 76 -70q118 -18 210 0l85 35l84 53v18q59 9 59 26l-8 97l-34 27q0 69 -42 69l-160 27q-59 -18 -84 9q-42 -36 -194 0q-9 35 -51 35l-34 97q0 71 43 141l219 150q101 44 143 27z" />
    <glyph glyph-name="t" unicode="t" horiz-adv-x="932" 
d="M195 945zM203 937zM292 1149l-30 -210l130 10v-10l299 60l30 -70q-10 -90 -30 -90l-189 10l-80 -30l-140 -10l-60 -20l-50 -309q20 -160 0 -170l20 -120l30 -20h140l110 40l30 -10l139 70q10 40 50 40l40 90l90 30q40 -10 50 -60l-10 -100q-220 -160 -519 -240l-10 10
l-150 -10q-110 80 -140 250l10 329l30 80v100q-30 20 -20 80q50 40 60 90v50q46 159 62 335l56 168q144 -96 52 -363z" />
    <glyph glyph-name="u" unicode="u" horiz-adv-x="1087" 
d="M208 868zM242 1000q43 0 51 -47l-77 -252l-43 -213q-17 -223 0 -261l35 -37l128 18l146 122l86 139q56 19 68 95l43 342l34 85q69 27 95 -65l-9 -131q-34 -94 -43 -224v-270q9 -65 26 -65l129 29l53 -51q-88 -52 -165 -127l-111 -27l-52 55q17 84 0 251h-17l-60 -111
l-162 -140q-147 -75 -224 -47l-60 47l-25 47l-27 111q-7 196 18 355l34 73q43 243 129 299z" />
    <glyph glyph-name="v" unicode="v" horiz-adv-x="947" 
d="M312 328zM320 320zM783 1158l75 -43l21 -43l-32 -96l-107 -129v-32l-75 -129l-11 -64l-86 -97l-96 -193l-32 -32v-32l-97 -182q-86 0 -129 43l-53 225l11 43l-22 10l-21 65l-43 418l-22 118l11 107l54 22l43 -11l32 -43l53 -429q65 -171 43 -214q22 -43 54 -11l193 279
q161 354 236 450z" />
    <glyph glyph-name="w" unicode="w" horiz-adv-x="1396" 
d="M1040 320zM1048 312zM729 986h43l32 -42l-11 -333l22 -86l-11 -10l22 -54l-11 -11l43 -128q75 -54 236 161q32 32 118 375l-22 118q0 53 43 75q97 -11 97 -75v-161q-54 -107 -65 -257q-64 -86 -53 -129l-129 -193l-193 -118l-97 43l-85 86q-32 160 -75 203l-193 -225
l-204 -96q-43 -65 -129 0l-43 128q11 343 33 386l53 118l11 97q43 64 53 171l33 33q43 10 85 -33v-96l-107 -386l-11 -247q86 22 97 0l182 161l86 118q75 193 86 343l75 64h-11z" />
    <glyph glyph-name="x" unicode="x" horiz-adv-x="1026" 
d="M488 568zM496 560zM139 976q65 0 129 -54l97 -86l107 -139l64 -21q75 128 290 300l75 -22v-64l-32 -64q-247 -226 -236 -290l64 -86l225 -214l11 -107l-43 -32l-75 21q-139 182 -322 322l-214 -183q-97 -150 -129 -139q-64 -11 -75 64l11 65l321 321l-150 183l-118 85
q-32 54 -21 108z" />
    <glyph glyph-name="y" unicode="y" horiz-adv-x="1082" 
d="M680 -248zM688 -256zM311 1029q54 11 64 -64l-43 -257q11 -65 -32 -343l22 -97l32 -11l86 33l139 117l204 279l21 75q-21 11 11 236l54 43q85 11 85 -64q-21 -172 11 -676l-64 -547q-65 -139 -140 -203q-85 -65 -225 -86h-64l-43 32l-54 -21q-43 42 -96 10
q-140 65 -193 43l-32 65l21 96h86q32 -32 107 -21l32 -22l129 -21l32 10l107 -10l150 107q54 86 75 182q0 225 22 247l-11 322l-32 -11q-139 -215 -214 -268q-33 0 -151 -97l-117 -21q-108 21 -129 257l32 333l21 42q-21 22 11 54l-11 43l22 32q-11 86 75 182z" />
    <glyph glyph-name="z" unicode="z" horiz-adv-x="1212" 
d="M330 178zM338 170zM86 826q-22 85 43 118l493 75l96 -11q22 32 215 21l32 -43v-75l-129 -85l-182 -226q-21 11 -86 -64h-21l-236 -236l21 -32l504 22l150 -11q22 32 129 21l43 -64q11 -64 -32 -86l-472 11l-182 -32l-11 10q-96 11 -161 -21q-32 21 -193 0q-43 11 -43 64
l22 86l107 139l139 108q86 107 268 257l86 118l-43 11q-150 -22 -182 0l-43 -32q-150 -11 -257 -76h-43z" />
    <glyph glyph-name="braceleft" unicode="{" horiz-adv-x="984" 
d="M480 -264zM488 -272zM696 1480q240 48 256 -112l-56 -56q-96 64 -239 16q-57 -79 -114 -114q-34 0 -80 -227l-23 -23l12 -216q-12 -91 -69 -148l103 -125q-23 -12 45 -171l-11 -11l11 -398q69 -126 91 -114l194 -57q57 -68 23 -91l-103 -34q-102 -12 -239 79l-125 137
l-23 80q-11 216 23 386q-11 148 -34 160l-68 57l-160 -12q-79 68 -68 91q23 69 57 80l11 -11l137 45l80 91q-23 80 11 341l80 160l102 91z" />
    <glyph glyph-name="bar" unicode="|" horiz-adv-x="582" 
d="M300 1745q46 22 91 -41q17 -260 0 -511q-19 -290 -36 -574l-31 -243l-15 -268l-36 -31q-45 -11 -91 115l6 189q16 248 24 342t25 209l-9 83l4 200l16 279l25 190z" />
    <glyph glyph-name="braceright" unicode="}" horiz-adv-x="824" 
d="M456 -240zM156 1396l26 66l218 42q232 -56 260 -281l-23 -455q79 -56 143 -156l-166 -61l-70 -143q-56 -80 14 -312q11 -148 -35 -261l-159 -148l-182 -114q-90 -49 -134 -1l-16 56q14 59 88 76l142 97q102 91 136 238l-23 467q89 122 157 170q-66 183 -20 547
q-23 136 -91 148h-80q-125 -69 -185 25z" />
    <glyph glyph-name="asciitilde" unicode="~" horiz-adv-x="1426" 
d="M355 1265h127q19 9 182 -100q110 -91 110 -118l118 -82h18q37 -73 146 -37l91 82l45 146l28 27q82 -9 91 -63l-28 -110l-36 -36q18 -18 -9 -46l-73 -81l-91 -64h-100l-146 64l-45 54l-100 64l-73 91l-91 73l-82 27l-100 -18l-64 -73l-27 -155q-18 -45 -64 -27l-36 36
q-28 55 54 246l82 82z" />
    <glyph glyph-name="Adieresis" unicode="&#xc4;" horiz-adv-x="1208" 
d="M776 1608v0v0zM872 1680zM334 554v-27l62 -17l307 9l-17 114l-18 9l-26 149l-62 185h-17l-167 -334zM580 1187q35 0 70 -44l71 -229v-70q79 -167 52 -202l36 -62q70 -228 114 -316q-18 -27 44 -88v-114l-35 -18q-35 -9 -71 53l-79 237q-9 53 -88 70l-52 -8l-378 17
q-106 -220 -150 -404q-35 -18 -70 0q0 53 -35 79l35 61q-18 9 35 123l35 44l71 176l35 44v27l26 26q26 105 62 149l26 27l18 61l87 132l44 97l27 17l35 97zM880 1672z" />
    <glyph glyph-name="Aring" unicode="&#xc5;" horiz-adv-x="1208" 
d="M683 1402l521 -1402h-222l-101 309h-549l-104 -309h-224l562 1404q-66 20 -108.5 75.5t-42.5 125.5q0 87 62 148t150 61t149.5 -61t61.5 -148q0 -72 -43.5 -128.5t-111.5 -74.5zM627 1505q42 0 71.5 29.5t29.5 70.5t-29.5 70t-71.5 29t-72 -29t-30 -70t30 -70.5t72 -29.5
zM616 1101l-227 -645h435z" />
    <glyph glyph-name="Ccedilla" unicode="&#xc7;" horiz-adv-x="1225" 
d="M1112 1288l72 -88l32 -48q2 -66 -31 -105h-67l-62 49l-104 32l-277 -93q-155 -118 -354 -351q-155 -286 -144 -324q-33 -39 67 -130l121 -39l255 13l166 52l44 -13l277 104l66 51h45l133 52l-23 -64l67 -52q-33 -66 -111 -78l-33 12l-487 -181l-321 -39h-155l-144 66
q-89 77 -89 220l22 156l78 181q100 155 165 241q67 70 300 238h33l78 66l210 65q75 7 171 7zM467 -455l-24 99q78 0 130 27t52 75q0 74 -90 74v119q99 0 154 -56t55 -137q0 -94 -73 -147.5t-204 -53.5z" />
    <glyph glyph-name="Eacute" unicode="&#xc9;" horiz-adv-x="1097" 
d="M296 1080zM824 1224l43 -10l195 43l43 -87q22 -43 -43 -86l-195 10l-54 -21l-141 -11v11l-336 -54l-76 -33l-11 -195l11 -76h76q65 44 184 44l11 -11l130 21v-10q238 21 271 -11v-44l-119 -10l-22 -33l-195 -22l-76 -32q-162 0 -282 -98l-10 -303l97 -11l228 54
q195 0 336 44v-11l43 11l11 -44v-32l-33 -33q-336 -86 -455 -86q-22 -33 -260 -76q-108 0 -130 54q22 22 0 292l43 380l-10 54l21 282q22 54 87 75q22 -21 206 0l119 33l303 32h-10zM300 1076zM398 1864q-64 0 -71 -58l7 -83q-19 -26 -13 -71l-3 -48q-10 -48 9 -67
q58 -7 84 45l13 179q13 77 -26 103z" />
    <glyph glyph-name="Ntilde" unicode="&#xd1;" horiz-adv-x="1307" 
d="M1000 332zM1059 1318l71 -82l-24 -271q24 -94 -11 -435l11 -83q-35 -94 -23 -200l-47 -59l-83 24q-58 82 -129 118l-483 600q-35 -35 -47 -165l12 -47l-71 -353l-11 -259l-36 -47q-106 -35 -117 70q-12 212 23 365l24 47l11 153l95 471l35 36q82 11 118 -24l82 -94
l47 -106l35 -24l24 -58l318 -377l59 -47l47 165v353l-24 117q35 36 24 177zM1004 328zM930 1792q-53 -207 -192 -207q-63 0 -138.5 38.5t-106.5 38.5q-71 0 -108 -77h-91q14 84 64.5 145.5t119.5 61.5q82 0 151.5 -38.5t104.5 -38.5q81 0 108 77h88z" />
    <glyph glyph-name="Odieresis" unicode="&#xd6;" horiz-adv-x="1380" 
d="M80 745zM628 1244zM388 188q71 -23 283 47q153 83 212 177q70 141 82 141l71 283l-36 188l-82 106l-176 12l-24 23l-247 -35q-94 -71 -141 -153l-142 -365q-23 -118 59 -330q47 -58 141 -94zM553 1318h200l212 -70l118 -106q82 -130 73 -278l-3 -181q-21 -103 -70 -224
l-35 -35q-12 -84 -201 -271l-282 -129q-77 -16 -188 -12q-281 88 -330 400l12 294l35 47q24 153 153 353l94 106z" />
    <glyph glyph-name="Udieresis" unicode="&#xdc;" horiz-adv-x="1328" 
d="M160 1488v0v0zM208 1264l72 -64q-56 -200 -56 -400l11 -435l36 -106l106 -59h164l165 82q247 224 318 636l-24 259l56 63l74 -39l23 -306l-94 -377l-94 -188l-141 -165l-47 -12l-83 -59l-94 -12l-23 -35l-83 -35q-82 -12 -106 23l-47 -11l-188 117q-94 153 -94 353
q-12 518 82 707z" />
    <glyph glyph-name="aacute" unicode="&#xe1;" horiz-adv-x="1076" 
d="M712 536zM199 207l-43 26v104l51 147l113 173q216 198 330 171l33 -24l-61 -165l-112 -190q-61 -86 -190 -198zM156 337v-104l43 -26l121 44q129 112 190 198l112 190l43 156l18 9v34q-147 17 -363 -181l-113 -173zM43 216q9 173 26 199l95 190l147 164q199 147 337 156
q112 34 162 -55l12 -56l-40 -142q-26 -90 -13 -162l17 -225l18 -60q34 -9 77 26l139 95l147 121l60 -9l-9 -43l-302 -277l-78 -103h-69q-60 34 -86 172l-35 268l-190 -250l-138 -113q-190 -69 -277 104zM199 207l121 44q129 112 190 198l112 190l43 156l18 9v34
q-147 17 -363 -181l-113 -173l-51 -147v-104zM361 1564q-64 0 -71 -58l7 -83q-19 -26 -13 -71l-3 -48q-10 -48 9 -67q58 -7 84 45l13 179q13 77 -26 103z" />
    <glyph glyph-name="agrave" unicode="&#xe0;" horiz-adv-x="1076" 
d="M712 536zM199 207l-43 26v104l51 147l113 173q216 198 330 171l33 -24l-61 -165l-112 -190q-61 -86 -190 -198zM156 337v-104l43 -26l121 44q129 112 190 198l112 190l43 156l18 9v34q-147 17 -363 -181l-113 -173zM43 216q9 173 26 199l95 190l147 164q199 147 337 156
q112 34 162 -55l12 -56l-40 -142q-26 -90 -13 -162l17 -225l18 -60q34 -9 77 26l139 95l147 121l60 -9l-9 -43l-302 -277l-78 -103h-69q-60 34 -86 172l-35 268l-190 -250l-138 -113q-190 -69 -277 104zM199 207l121 44q129 112 190 198l112 190l43 156l18 9v34
q-147 17 -363 -181l-113 -173l-51 -147v-104zM219 1617q89 0 98 -77l3 -78q15 -66 6 -127q18 -129 -9 -154q-80 -9 -114 60l-18 239q-18 104 34 137z" />
    <glyph glyph-name="acircumflex" unicode="&#xe2;" horiz-adv-x="1076" 
d="M712 536zM199 207l-43 26v104l51 147l113 173q216 198 330 171l33 -24l-61 -165l-112 -190q-61 -86 -190 -198zM156 337v-104l43 -26l121 44q129 112 190 198l112 190l43 156l18 9v34q-147 17 -363 -181l-113 -173zM43 216q9 173 26 199l95 190l147 164q199 147 337 156
q112 34 162 -55l12 -56l-40 -142q-26 -90 -13 -162l17 -225l18 -60q34 -9 77 26l139 95l147 121l60 -9l-9 -43l-302 -277l-78 -103h-69q-60 34 -86 172l-35 268l-190 -250l-138 -113q-190 -69 -277 104zM199 207l121 44q129 112 190 198l112 190l43 156l18 9v34
q-147 17 -363 -181l-113 -173l-51 -147v-104zM680 1285l-163 189l-178 -189h-172l298 338h107l305 -338h-197z" />
    <glyph glyph-name="adieresis" unicode="&#xe4;" horiz-adv-x="1076" 
d="M712 536zM199 207l-43 26v104l51 147l113 173q216 198 330 171l33 -24l-61 -165l-112 -190q-61 -86 -190 -198zM156 337v-104l43 -26l121 44q129 112 190 198l112 190l43 156l18 9v34q-147 17 -363 -181l-113 -173zM43 216q9 173 26 199l95 190l147 164q199 147 337 156
q112 34 162 -55l12 -56l-40 -142q-26 -90 -13 -162l17 -225l18 -60q34 -9 77 26l139 95l147 121l60 -9l-9 -43l-302 -277l-78 -103h-69q-60 34 -86 172l-35 268l-190 -250l-138 -113q-190 -69 -277 104zM199 207l121 44q129 112 190 198l112 190l43 156l18 9v34
q-147 17 -363 -181l-113 -173l-51 -147v-104z" />
    <glyph glyph-name="atilde" unicode="&#xe3;" horiz-adv-x="1076" 
d="M712 536zM199 207l-43 26v104l51 147l113 173q216 198 330 171l33 -24l-61 -165l-112 -190q-61 -86 -190 -198zM156 337v-104l43 -26l121 44q129 112 190 198l112 190l43 156l18 9v34q-147 17 -363 -181l-113 -173zM43 216q9 173 26 199l95 190l147 164q199 147 337 156
q112 34 162 -55l12 -56l-40 -142q-26 -90 -13 -162l17 -225l18 -60q34 -9 77 26l139 95l147 121l60 -9l-9 -43l-302 -277l-78 -103h-69q-60 34 -86 172l-35 268l-190 -250l-138 -113q-190 -69 -277 104zM199 207l121 44q129 112 190 198l112 190l43 156l18 9v34
q-147 17 -363 -181l-113 -173l-51 -147v-104zM833 1492q-53 -207 -192 -207q-63 0 -138.5 38.5t-106.5 38.5q-71 0 -108 -77h-91q14 84 64.5 145.5t119.5 61.5q82 0 151.5 -38.5t104.5 -38.5q81 0 108 77h88z" />
    <glyph glyph-name="aring" unicode="&#xe5;" horiz-adv-x="1076" 
d="M712 536zM199 207l-43 26v104l51 147l113 173q216 198 330 171l33 -24l-61 -165l-112 -190q-61 -86 -190 -198zM156 337v-104l43 -26l121 44q129 112 190 198l112 190l43 156l18 9v34q-147 17 -363 -181l-113 -173zM43 216q9 173 26 199l95 190l147 164q199 147 337 156
q112 34 162 -55l12 -56l-40 -142q-26 -90 -13 -162l17 -225l18 -60q34 -9 77 26l139 95l147 121l60 -9l-9 -43l-302 -277l-78 -103h-69q-60 34 -86 172l-35 268l-190 -250l-138 -113q-190 -69 -277 104zM199 207l121 44q129 112 190 198l112 190l43 156l18 9v34
q-147 17 -363 -181l-113 -173l-51 -147v-104zM514 1704q88 0 149.5 -61t61.5 -148t-62 -148.5t-149 -61.5q-88 0 -150 61.5t-62 148.5t62 148t150 61zM514 1395q42 0 71.5 29.5t29.5 70.5t-29.5 70t-71.5 29t-72 -29t-30 -70t30 -70.5t72 -29.5z" />
    <glyph glyph-name="ccedilla" unicode="&#xe7;" horiz-adv-x="1014" 
d="M592 944zM600 936zM160 461l8 -142l54 -80l150 -53l89 18l9 -9l115 27l169 106q26 106 88 80q53 -27 62 -89q-248 -195 -399 -239h-177l-35 18l-18 -9l-89 53q-151 159 -133 177q-18 89 36 248l35 36l62 106l133 133q80 71 266 80q124 9 142 -27q89 -62 115 -168l-17 -62
h-54l-26 27q-27 168 -195 159l-54 -35l-62 -9l-195 -160zM407 -455l-24 99q78 0 130 27t52 75q0 74 -90 74v119q99 0 154 -56t55 -137q0 -94 -73 -147.5t-204 -53.5z" />
    <glyph glyph-name="eacute" unicode="&#xe9;" horiz-adv-x="1117" 
d="M184 536zM224 608l80 8l86 60l98 12l221 100l18 74q27 55 -53 68h-107q-62 -25 -97 -56h-27l-107 -106l-64 -56zM567 1062q249 33 249 -167l-36 -192l-26 -39h-54l-115 -32q-151 -80 -204 -71l-186 -105q-44 -167 195 -246l27 8l88 -16l151 56q80 72 124 -17l-35 -55
q-45 -8 -98 -56l-80 -8l-53 -24h-115l-18 16q-53 -8 -150 56l-89 80q-53 63 -71 222l27 72l-9 32q26 8 26 80q98 159 124 159l9 24l142 136l89 56zM420 1564q-64 0 -71 -58l7 -83q-19 -26 -13 -71l-3 -48q-10 -48 9 -67q58 -7 84 45l13 179q13 77 -26 103z" />
    <glyph glyph-name="egrave" unicode="&#xe8;" horiz-adv-x="1117" 
d="M184 536zM224 608l80 8l86 60l98 12l221 100l18 74q27 55 -53 68h-107q-62 -25 -97 -56h-27l-107 -106l-64 -56zM567 1062q249 33 249 -167l-36 -192l-26 -39h-54l-115 -32q-151 -80 -204 -71l-186 -105q-44 -167 195 -246l27 8l88 -16l151 56q80 72 124 -17l-35 -55
q-45 -8 -98 -56l-80 -8l-53 -24h-115l-18 16q-53 -8 -150 56l-89 80q-53 63 -71 222l27 72l-9 32q26 8 26 80q98 159 124 159l9 24l142 136l89 56zM301 1617q89 0 98 -77l3 -78q15 -66 6 -127q18 -129 -9 -154q-80 -9 -114 60l-18 239q-18 104 34 137z" />
    <glyph glyph-name="ecircumflex" unicode="&#xea;" horiz-adv-x="1117" 
d="M184 536zM224 608l80 8l86 60l98 12l221 100l18 74q27 55 -53 68h-107q-62 -25 -97 -56h-27l-107 -106l-64 -56zM567 1062q249 33 249 -167l-36 -192l-26 -39h-54l-115 -32q-151 -80 -204 -71l-186 -105q-44 -167 195 -246l27 8l88 -16l151 56q80 72 124 -17l-35 -55
q-45 -8 -98 -56l-80 -8l-53 -24h-115l-18 16q-53 -8 -150 56l-89 80q-53 63 -71 222l27 72l-9 32q26 8 26 80q98 159 124 159l9 24l142 136l89 56zM729 1285l-163 189l-178 -189h-172l298 338h107l305 -338h-197z" />
    <glyph glyph-name="edieresis" unicode="&#xeb;" horiz-adv-x="1117" 
d="M184 536zM224 608l80 8l86 60l98 12l221 100l18 74q27 55 -53 68h-107q-62 -25 -97 -56h-27l-107 -106l-64 -56zM567 1062q249 33 249 -167l-36 -192l-26 -39h-54l-115 -32q-151 -80 -204 -71l-186 -105q-44 -167 195 -246l27 8l88 -16l151 56q80 72 124 -17l-35 -55
q-45 -8 -98 -56l-80 -8l-53 -24h-115l-18 16q-53 -8 -150 56l-89 80q-53 63 -71 222l27 72l-9 32q26 8 26 80q98 159 124 159l9 24l142 136l89 56z" />
    <glyph glyph-name="iacute" unicode="&#xed;" horiz-adv-x="584" 
d="M227 0v911h-147v160h340v-1071h-193zM136 1564q-64 0 -71 -58l7 -83q-19 -26 -13 -71l-3 -48q-10 -48 9 -67q58 -7 84 45l13 179q13 77 -26 103z" />
    <glyph glyph-name="igrave" unicode="&#xec;" horiz-adv-x="584" 
d="M227 0v911h-147v160h340v-1071h-193zM2 1617q89 0 98 -77l3 -78q15 -66 6 -127q18 -129 -9 -154q-80 -9 -114 60l-18 239q-18 104 34 137z" />
    <glyph glyph-name="icircumflex" unicode="&#xee;" horiz-adv-x="584" 
d="M227 0v911h-147v160h340v-1071h-193zM443 1285l-163 189l-178 -189h-172l298 338h107l305 -338h-197z" />
    <glyph glyph-name="idieresis" unicode="&#xef;" horiz-adv-x="584" 
d="M227 0v911h-147v160h340v-1071h-193z" />
    <glyph glyph-name="ntilde" unicode="&#xf1;" horiz-adv-x="1119" 
d="M728 480zM736 472zM695 958q113 0 113 -122q-28 -329 28 -658l-47 -75l-75 19q-56 66 -47 169l9 10q-18 244 10 432l-10 75l-56 -9l-85 -123l-56 -84l-235 -385l-47 -151q-28 -47 -94 -28l-37 75l9 10l-9 112l75 630l37 37l66 -46q-19 -94 0 -141l-19 -123
q-28 -28 -29 -194q67 63 76 91l188 310l113 122q47 0 66 38l66 9h-10zM850 1492q-53 -207 -192 -207q-63 0 -138.5 38.5t-106.5 38.5q-71 0 -108 -77h-91q14 84 64.5 145.5t119.5 61.5q82 0 151.5 -38.5t104.5 -38.5q81 0 108 77h88z" />
    <glyph glyph-name="oacute" unicode="&#xf3;" horiz-adv-x="1099" 
d="M534 178zM319 169q47 19 66 0l57 19l140 103q94 104 113 179l57 253q9 19 -66 151l-66 28l-131 -10l-132 -93l-9 -38l-104 -94l-56 -132q-10 -150 19 -272q18 -56 112 -94zM188 535q-10 -150 19 -272q18 -56 112 -94q47 19 66 0l57 19l140 103q94 104 113 179l57 253
q9 19 -66 151l-66 28l-131 -10l-132 -93l-9 -38l-104 -94zM56 395q0 137 29 225l93 150l138 166l144 88h85q59 -4 131 -28l66 -38q85 -66 104 -216l-10 -216l-66 -178l-56 -104l-113 -112q-94 -85 -122 -85q-113 -19 -141 -19q-40 10 -94 19q-164 49 -188 348zM275 163
q-94 38 -112 94q-29 122 -19 272l56 132l78 99l35 33l132 93l131 10l66 -28q104 -86 96 -246l-40 -156q-28 -96 -148 -208l-106 -92q-110 -8 -169 -3zM536 176zM370 1564q-64 0 -71 -58l7 -83q-19 -26 -13 -71l-3 -48q-10 -48 9 -67q58 -7 84 45l13 179q13 77 -26 103z" />
    <glyph glyph-name="ograve" unicode="&#xf2;" horiz-adv-x="1099" 
d="M534 178zM319 169q47 19 66 0l57 19l140 103q94 104 113 179l57 253q9 19 -66 151l-66 28l-131 -10l-132 -93l-9 -38l-104 -94l-56 -132q-10 -150 19 -272q18 -56 112 -94zM188 535q-10 -150 19 -272q18 -56 112 -94q47 19 66 0l57 19l140 103q94 104 113 179l57 253
q9 19 -66 151l-66 28l-131 -10l-132 -93l-9 -38l-104 -94zM56 395q0 137 29 225l93 150l138 166l144 88h85q59 -4 131 -28l66 -38q85 -66 104 -216l-10 -216l-66 -178l-56 -104l-113 -112q-94 -85 -122 -85q-113 -19 -141 -19q-40 10 -94 19q-164 49 -188 348zM275 163
q-94 38 -112 94q-29 122 -19 272l56 132l78 99l35 33l132 93l131 10l66 -28q104 -86 96 -246l-40 -156q-28 -96 -148 -208l-106 -92q-110 -8 -169 -3zM536 176zM279 1617q89 0 98 -77l3 -78q15 -66 6 -127q18 -129 -9 -154q-80 -9 -114 60l-18 239q-18 104 34 137z" />
    <glyph glyph-name="ocircumflex" unicode="&#xf4;" horiz-adv-x="1099" 
d="M534 178zM319 169q47 19 66 0l57 19l140 103q94 104 113 179l57 253q9 19 -66 151l-66 28l-131 -10l-132 -93l-9 -38l-104 -94l-56 -132q-10 -150 19 -272q18 -56 112 -94zM188 535q-10 -150 19 -272q18 -56 112 -94q47 19 66 0l57 19l140 103q94 104 113 179l57 253
q9 19 -66 151l-66 28l-131 -10l-132 -93l-9 -38l-104 -94zM56 395q0 137 29 225l93 150l138 166l144 88h85q59 -4 131 -28l66 -38q85 -66 104 -216l-10 -216l-66 -178l-56 -104l-113 -112q-94 -85 -122 -85q-113 -19 -141 -19q-40 10 -94 19q-164 49 -188 348zM275 163
q-94 38 -112 94q-29 122 -19 272l56 132l78 99l35 33l132 93l131 10l66 -28q104 -86 96 -246l-40 -156q-28 -96 -148 -208l-106 -92q-110 -8 -169 -3zM536 176zM709 1285l-163 189l-178 -189h-172l298 338h107l305 -338h-197z" />
    <glyph glyph-name="odieresis" unicode="&#xf6;" horiz-adv-x="1099" 
d="M534 178zM319 169q47 19 66 0l57 19l140 103q94 104 113 179l57 253q9 19 -66 151l-66 28l-131 -10l-132 -93l-9 -38l-104 -94l-56 -132q-10 -150 19 -272q18 -56 112 -94zM188 535q-10 -150 19 -272q18 -56 112 -94q47 19 66 0l57 19l140 103q94 104 113 179l57 253
q9 19 -66 151l-66 28l-131 -10l-132 -93l-9 -38l-104 -94zM56 395q0 137 29 225l93 150l138 166l144 88h85q59 -4 131 -28l66 -38q85 -66 104 -216l-10 -216l-66 -178l-56 -104l-113 -112q-94 -85 -122 -85q-113 -19 -141 -19q-40 10 -94 19q-164 49 -188 348zM275 163
q-94 38 -112 94q-29 122 -19 272l56 132l78 99l35 33l132 93l131 10l66 -28q104 -86 96 -246l-40 -156q-28 -96 -148 -208l-106 -92q-110 -8 -169 -3zM536 176z" />
    <glyph glyph-name="otilde" unicode="&#xf5;" horiz-adv-x="1099" 
d="M534 178zM319 169q47 19 66 0l57 19l140 103q94 104 113 179l57 253q9 19 -66 151l-66 28l-131 -10l-132 -93l-9 -38l-104 -94l-56 -132q-10 -150 19 -272q18 -56 112 -94zM188 535q-10 -150 19 -272q18 -56 112 -94q47 19 66 0l57 19l140 103q94 104 113 179l57 253
q9 19 -66 151l-66 28l-131 -10l-132 -93l-9 -38l-104 -94zM56 395q0 137 29 225l93 150l138 166l144 88h85q59 -4 131 -28l66 -38q85 -66 104 -216l-10 -216l-66 -178l-56 -104l-113 -112q-94 -85 -122 -85q-113 -19 -141 -19q-40 10 -94 19q-164 49 -188 348zM275 163
q-94 38 -112 94q-29 122 -19 272l56 132l78 99l35 33l132 93l131 10l66 -28q104 -86 96 -246l-40 -156q-28 -96 -148 -208l-106 -92q-110 -8 -169 -3zM536 176zM880 1492q-53 -207 -192 -207q-63 0 -138.5 38.5t-106.5 38.5q-71 0 -108 -77h-91q14 84 64.5 145.5t119.5 61.5
q82 0 151.5 -38.5t104.5 -38.5q81 0 108 77h88z" />
    <glyph glyph-name="uacute" unicode="&#xfa;" horiz-adv-x="1119" 
d="M208 868zM242 1000q43 0 51 -47l-77 -252l-43 -213q-17 -223 0 -261l35 -37l128 18l146 122l86 139q56 19 68 95l43 342l34 85q69 27 95 -65l-9 -131q-34 -94 -43 -224v-270q9 -65 26 -65l129 29l53 -51q-88 -52 -165 -127l-111 -27l-52 55q17 84 0 251h-17l-60 -111
l-162 -140q-147 -75 -224 -47l-60 47l-25 47l-27 111q-7 196 18 355l34 73q43 243 129 299zM336 1564q-64 0 -71 -58l7 -83q-19 -26 -13 -71l-3 -48q-10 -48 9 -67q58 -7 84 45l13 179q13 77 -26 103z" />
    <glyph glyph-name="ugrave" unicode="&#xf9;" horiz-adv-x="1119" 
d="M208 868zM242 1000q43 0 51 -47l-77 -252l-43 -213q-17 -223 0 -261l35 -37l128 18l146 122l86 139q56 19 68 95l43 342l34 85q69 27 95 -65l-9 -131q-34 -94 -43 -224v-270q9 -65 26 -65l129 29l53 -51q-88 -52 -165 -127l-111 -27l-52 55q17 84 0 251h-17l-60 -111
l-162 -140q-147 -75 -224 -47l-60 47l-25 47l-27 111q-7 196 18 355l34 73q43 243 129 299zM261 1617q89 0 98 -77l3 -78q15 -66 6 -127q18 -129 -9 -154q-80 -9 -114 60l-18 239q-18 104 34 137z" />
    <glyph glyph-name="ucircumflex" unicode="&#xfb;" horiz-adv-x="1119" 
d="M208 868zM242 1000q43 0 51 -47l-77 -252l-43 -213q-17 -223 0 -261l35 -37l128 18l146 122l86 139q56 19 68 95l43 342l34 85q69 27 95 -65l-9 -131q-34 -94 -43 -224v-270q9 -65 26 -65l129 29l53 -51q-88 -52 -165 -127l-111 -27l-52 55q17 84 0 251h-17l-60 -111
l-162 -140q-147 -75 -224 -47l-60 47l-25 47l-27 111q-7 196 18 355l34 73q43 243 129 299zM679 1285l-163 189l-178 -189h-172l298 338h107l305 -338h-197z" />
    <glyph glyph-name="udieresis" unicode="&#xfc;" horiz-adv-x="1119" 
d="M208 868zM242 1000q43 0 51 -47l-77 -252l-43 -213q-17 -223 0 -261l35 -37l128 18l146 122l86 139q56 19 68 95l43 342l34 85q69 27 95 -65l-9 -131q-34 -94 -43 -224v-270q9 -65 26 -65l129 29l53 -51q-88 -52 -165 -127l-111 -27l-52 55q17 84 0 251h-17l-60 -111
l-162 -140q-147 -75 -224 -47l-60 47l-25 47l-27 111q-7 196 18 355l34 73q43 243 129 299z" />
    <glyph glyph-name="dagger" unicode="&#x2020;" horiz-adv-x="940" 
d="M395 931h-370v140h370v314h150v-314h370v-140h-370v-1181l-74 -88l-76 88v1181z" />
    <glyph glyph-name="degree" unicode="&#xb0;" 
d="M508 1072q-88 0 -150 61.5t-62 148.5t62 148t150 61t149.5 -61t61.5 -148t-62 -148.5t-149 -61.5zM508 1421q-57 0 -98 -41t-41 -98t41 -98t98 -41t98 41t41 98t-41 98t-98 41z" />
    <glyph glyph-name="cent" unicode="&#xa2;" 
d="M694 1217h102l-71 -248q109 -26 170 -75l-78 -113q-38 38 -130 56l-169 -590q53 -20 116 -20q102 0 206 79l60 -136q-122 -79 -303 -79q-62 0 -119 15l-74 -258h-115l88 300q-184 110 -184 379q0 202 115 325.5t316 127.5zM425 309l158 532q-101 -16 -165.5 -103
t-64.5 -211q0 -140 72 -218z" />
    <glyph glyph-name="sterling" unicode="&#xa3;" horiz-adv-x="1258" 
d="M683 1454q178 20 306 -39q109 -60 139 -158q10 -70 -20 -90h-49l-40 70l-119 89q0 39 -39 39q-119 -19 -129 0q-178 -118 -198 -168q-89 -178 -109 -277l-29 -30l10 -39l366 -30q49 -109 -20 -128q-50 -10 -99 29l-297 -10l-59 -296l10 -30q-30 -20 -30 -129l49 -29
l119 9q317 -59 406 0q59 -9 89 -69l-10 -59l-79 -30l-307 10q-30 -30 -109 20l-277 -20l-39 59l69 307q-20 0 40 257q-119 -39 -129 10l10 89q119 0 168 50q-20 20 40 168l118 218l129 138h20z" />
    <glyph glyph-name="section" unicode="&#xa7;" horiz-adv-x="929" 
d="M204 937q-119 68 -119 243q0 137 118 223.5t274 86.5q64 0 152.5 -29.5t136.5 -69.5l-62 -184q-108 103 -222 103q-187 0 -187 -127q0 -44 30.5 -83t187 -78t226 -109.5t69.5 -187.5q0 -98 -81 -182q123 -82 123 -221q0 -167 -108 -256t-292 -89q-222 0 -349 92l68 186
q109 -100 270 -100q201 0 201 147q0 135 -229 182q-136 28 -220 103t-84 153q0 136 97 197zM355 881q-64 -42 -64 -93q0 -31 29.5 -68.5t84.5 -57.5t191 -50q18 36 18 95q0 45 -24 77.5t-67.5 52t-69.5 22.5t-98 22z" />
    <glyph glyph-name="bullet" unicode="&#x2022;" 
d="M542 863q120 0 204.5 -84.5t84.5 -204.5t-84.5 -204.5t-204.5 -84.5t-204.5 84.5t-84.5 204.5t84.5 204.5t204.5 84.5z" />
    <glyph glyph-name="paragraph" unicode="&#xb6;" 
d="M778 -250v1616h-158v-1616h-154v893q-348 0 -348 434q0 176 81 294t226 118h507v-1739h-154z" />
    <glyph glyph-name="germandbls" unicode="&#xdf;" horiz-adv-x="1119" 
d="M522 3l36 151l56 -9q18 -3 59.5 5.5t72.5 30.5t51.5 57.5t31 84t10.5 110.5q0 83 -29.5 145t-57.5 85.5t-152 125.5q-84 68 -84 146q0 22 50.5 65t76.5 81.5t26 96.5q0 162 -169 162q-96 0 -135.5 -75t-39.5 -249v-1016h-190v1115q0 184 92 289.5t247 105.5
q176 0 273 -75t97 -203t-95 -237q-33 -38 -33 -50q0 -21 13 -32t79 -45q231 -120 231 -422q0 -219 -97 -342.5t-279 -123.5q-76 0 -141 23z" />
    <glyph glyph-name="registered" unicode="&#xae;" horiz-adv-x="1624" 
d="M825 1613l119 3q108 24 228 -40l158 -141l59 -129q99 -79 119 -277l-30 -307l10 -10l-109 -267l-99 -109l-217 -168l-89 -10q-20 -49 -169 -59q-138 -10 -227 20q-30 39 -109 49l-30 30q-10 -20 -109 39l-138 149q-59 158 -79 326q-10 119 20 188l19 30q0 99 40 168
l30 30l19 79q40 20 40 79l198 208q69 79 346 119zM702 228q20 -20 277 49l188 129l119 148v50q40 0 79 118q0 188 20 218q10 119 -30 247l-148 228l-49 39l-94 6l-85 24l-89 10q-19 -20 -79 10l-10 -20q-128 10 -178 -30l-158 -118l-188 -317l-30 -198l-19 -20q19 -69 0 -99
l29 -59q-10 -49 30 -168l59 -89l79 -69l99 -50zM861 1286q227 -10 247 -99q30 -69 -59 -208l-89 -89l-70 -39l-79 10l10 -30l267 -168l10 -40q79 -49 0 -109h-39l-20 30h-30l-376 257l-49 20q-50 -89 -79 -297l-60 -10q-39 30 -39 70v99l89 227l19 89l80 159v39l49 40h59
l30 20zM663 950l188 20l109 99l29 59l-10 49l-148 -10l-148 -49l-50 -109q-10 -39 30 -59z" />
    <glyph glyph-name="copyright" unicode="&#xa9;" horiz-adv-x="1624" 
d="M663 1603l10 -10l20 20l188 29l158 -19h30q9 49 39 59l69 -20q40 -20 198 -247l129 -257q-10 -119 20 -119l-40 -287l-30 -30l-118 -237l-258 -208l-207 -69l-337 10l-138 49l-159 158l-59 109l-49 188l19 257l20 30l40 178q109 188 227 297l79 40l30 39zM584 346
q99 20 237 -10l198 60l198 148q218 376 178 445v139l-40 49q20 30 -49 139h-20q-20 89 -79 138q-69 0 -99 40l-227 30l-30 29l-60 -10l-39 -39q-30 20 -168 -50l-149 -138l-109 -178l-69 -267q20 -50 0 -149q50 -198 109 -247l79 -69zM856 1299l79 -30q20 20 119 -49
l69 -109q20 -60 -40 -79q-69 0 -59 89l-89 69q-10 -20 -109 0l-118 -59l-80 -178q10 -169 30 -179l79 -59h99l20 -20q129 -10 237 30l60 -10l-20 -69l-59 -20l-80 -59q-29 19 -207 0q-30 29 -99 19q-168 60 -178 248q-10 138 19 237q139 248 327 228z" />
    <glyph glyph-name="trademark" unicode="&#x2122;" horiz-adv-x="1300" 
d="M299 1392q77 13 129 14l276 18l26 -24q2 -45 -69 -45q-135 -8 -187 -19q-33 -220 -27 -270l-6 -68l-4 -75l-2 -82q-10 -46 -27 -46q-38 0 -54 59q1 73 0 105q18 149 33 296q16 17 10 68l-10 13l-97 -17l-145 -27l-26 31q0 50 26 50l122 22zM1249 1416q36 0 42 -23
q29 -118 22 -256l18 -127q35 -88 41 -131q7 -49 -18 -75h-34q-59 11 -100 409l-35 -48l-41 -106l-64 -93l-41 -94l-30 -11q-46 -6 -46 11q-12 112 -100 372l-35 -67l-35 -180l-35 -81q-6 -99 -24 -129q-40 -26 -52 24l24 155l17 31l58 222l30 93l46 99l11 5l48 -29
q17 -12 58 -255l18 -30l17 -74l12 -12l82 116l100 216l52 68h-6z" />
    <glyph glyph-name="acute" unicode="&#xb4;" horiz-adv-x="618" 
d="M340 1564q-64 0 -71 -58l7 -83q-19 -26 -13 -71l-3 -48q-10 -48 9 -67q58 -7 84 45l13 179q13 77 -26 103z" />
    <glyph glyph-name="dieresis" unicode="&#xa8;" 
 />
    <glyph glyph-name="notequal" unicode="&#x2260;" 
d="M822 1051h139l-143 -175h142v-141h-257l-162 -199h419v-141h-534l-165 -202h-138l165 202h-166v141h280l163 199h-443v141h557z" />
    <glyph glyph-name="AE" unicode="&#xc6;" horiz-adv-x="1775" 
d="M828 307h-448l-139 -307h-224l705 1465h981v-180h-675v-407h484v-170h-484v-528h664v-180h-864v307zM828 1285l-384 -829h384v829z" />
    <glyph glyph-name="Oslash" unicode="&#xd8;" horiz-adv-x="1345" 
d="M350 66l-67 -91h-216l160 211q-160 214 -160 559q0 318 159.5 532t430.5 214q214 0 361 -100l67 100h202l-144 -220q144 -194 144 -526q0 -361 -163 -565.5t-467 -204.5q-176 0 -307 91zM913 1229q-99 82 -256 82q-186 0 -283 -152t-97 -414q0 -217 77 -378zM1019 1083
l-562 -856q84 -72 200 -72q206 0 313 156t107 434q0 205 -58 338z" />
    <glyph glyph-name="infinity" unicode="&#x221e;" 
d="M537 596q-114 -144 -238 -144q-115 0 -181 57t-66 162q0 94 67 154.5t167 60.5q145 0 250 -129q105 129 255 129q99 0 166 -60t67 -155q0 -103 -66 -161t-180 -58q-127 0 -241 144zM598 674q85 -119 190 -119q130 0 130 116t-140 116q-76 0 -180 -113zM479 674
q-104 113 -180 113q-140 0 -140 -116t130 -116q105 0 190 119z" />
    <glyph glyph-name="plusminus" unicode="&#xb1;" 
d="M611 706h349v-141h-349v-345h-141v345h-348v141h348v343h141v-343zM960 121v-141h-838v141h838z" />
    <glyph glyph-name="lessequal" unicode="&#x2264;" 
d="M150 594v123l739 354v-161l-571 -255l571 -258v-161zM960 121v-141h-838v141h838z" />
    <glyph glyph-name="greaterequal" unicode="&#x2265;" 
d="M932 594l-739 -358v161l571 258l-571 255v161l739 -354v-123zM122 121h838v-141h-838v141z" />
    <glyph glyph-name="yen" unicode="&#xa5;" horiz-adv-x="1168" 
d="M932 475h-254v-475h-200v475h-243v131h243v50l-439 809h206l332 -640l368 640h197l-464 -809v-50h254v-131z" />
    <glyph glyph-name="mu" unicode="&#x3bc;" horiz-adv-x="1119" 
d="M325 18v-438h-190v1491h190v-623q0 -302 235 -302q84 0 148 43.5t87 105.5v776h190v-1071h-190v148q-34 -75 -112 -121.5t-175 -46.5q-108 0 -183 38z" />
    <glyph glyph-name="partialdiff" unicode="&#x2202;" horiz-adv-x="1125" 
d="M592 1079q0 56 -167 178.5t-298 122.5l44 161q170 0 381 -143t336.5 -366.5t125.5 -482.5q0 -247 -140 -408.5t-369 -161.5q-450 0 -450 489q0 261 168.5 436t368.5 175zM718 920q-216 0 -344.5 -128.5t-128.5 -323.5q0 -154 71.5 -236t198.5 -82q143 0 226 108t83 300
q0 256 -106 362z" />
    <glyph glyph-name="summation" unicode="&#x2211;" horiz-adv-x="1075" 
d="M329 1285l399 -546l-409 -732h683v-180h-914v180l400 732l-400 566v160h875v-180h-634z" />
    <glyph glyph-name="product" unicode="&#x220f;" horiz-adv-x="1132" 
d="M365 1285l-1 -1455h-200v1455h-130v180h1050v-180h-130v-1455h-200v1455h-389z" />
    <glyph glyph-name="pi" unicode="&#x3c0;" horiz-adv-x="1232" 
d="M982 0h-193v911h-337v-911h-193v911h-167v160h1048v-160h-158v-911z" />
    <glyph glyph-name="integral" unicode="&#x222b;" 
d="M-22 -297l100 142q77 -95 170 -95q71 0 114 74t43 167v1073q0 180 110.5 313t270.5 133q161 0 280 -102l-124 -142q-59 74 -166 74q-68 0 -110 -55t-42 -251v-1011q0 -188 -93 -315.5t-252 -127.5q-178 0 -301 123z" />
    <glyph glyph-name="ordfeminine" unicode="&#xaa;" horiz-adv-x="752" 
d="M513 902q-75 -78 -216 -78q-89 0 -149.5 50.5t-60.5 127.5q0 115 93.5 182t242.5 67h39l35 -1q-3 127 -138 127q-109 0 -175 -62l-58 108q91 68 219 68q288 0 288 -267v-225q0 -79 53 -107v-67q-139 0 -173 77zM498 1157h-72q-92 0 -148.5 -40t-56.5 -100q0 -38 35.5 -61
t87.5 -23q92 0 154 69v155z" />
    <glyph glyph-name="ordmasculine" unicode="&#xba;" horiz-adv-x="752" 
d="M66 1159q0 148 86 240t227 92q149 0 230.5 -89t81.5 -243q0 -153 -82.5 -244t-229.5 -91t-230 90.5t-83 244.5zM207 1159q0 -221 172 -221q171 0 171 221q0 218 -171 218q-172 0 -172 -218z" />
    <glyph glyph-name="Omega" unicode="&#x3a9;" horiz-adv-x="1370" 
d="M1295 0h-500v152q161 148 225.5 285.5t64.5 307.5q0 566 -415 566q-187 0 -286 -153t-99 -413q0 -154 86.5 -337t203.5 -258v-150h-500v150h269q-269 209 -269 595q0 317 161.5 531.5t433.5 214.5q304 0 464.5 -196t160.5 -550q0 -183 -76 -342.5t-213 -252.5h289v-150z
" />
    <glyph glyph-name="ae" unicode="&#xe6;" horiz-adv-x="1788" 
d="M1696 517h-762q0 -170 89 -273.5t238 -103.5q175 0 274 109l80 -152q-78 -69 -169 -93t-222 -24q-170 0 -298 95q5 -50 11 -95h-161q-11 47 -35 143q-114 -143 -339 -143q-133 0 -227.5 87.5t-94.5 213.5q0 182 141.5 292t370.5 110q56 0 132 -22q0 260 -233 260
q-178 0 -274 -96l-80 159q54 44 149.5 75.5t182.5 31.5q293 0 389 -173q148 173 368 173q222 0 353.5 -133t131.5 -345q0 -46 -15 -96zM934 655h598q0 123 -84.5 199.5t-222.5 76.5q-123 0 -207 -90t-84 -186zM724 526q-60 20 -127 20q-142 0 -234.5 -79.5t-92.5 -169.5
q0 -167 198 -167q145 0 256 137v259z" />
    <glyph glyph-name="oslash" unicode="&#xf8;" horiz-adv-x="1117" 
d="M270 58l-58 -78h-151l119 162q-119 149 -119 396q0 248 133.5 400.5t351.5 152.5q165 0 278 -76l56 76h150l-117 -159q117 -146 117 -394q0 -259 -130 -408.5t-354 -149.5q-162 0 -276 78zM295 297l424 575q-75 54 -173 54q-134 0 -214.5 -103t-80.5 -285q0 -148 44 -241
zM373 199q69 -64 173 -64q134 0 214 108.5t80 294.5q0 146 -43 237z" />
    <glyph glyph-name="questiondown" unicode="&#xbf;" horiz-adv-x="752" 
d="M406 790q-62 0 -106 44t-44 106t44 106.5t106 44.5t106 -44.5t44 -106.5t-44 -106t-106 -44zM364 642h132q34 -95 34 -137q0 -72 -26.5 -147t-120 -179.5t-125.5 -160.5t-32 -109q0 -176 213 -176q102 0 178 73l73 -143q-101 -83 -301 -83q-150 0 -249.5 85t-99.5 227
q0 72 25.5 138.5t78.5 122.5l146 156q88 108 88 242q0 21 -14 91z" />
    <glyph glyph-name="exclamdown" unicode="&#xa1;" horiz-adv-x="752" 
d="M384 790q-62 0 -106 44t-44 106t44 106.5t106 44.5t106 -44.5t44 -106.5t-44 -106t-106 -44zM491 -11v-409h-226v410q0 196 77 699h71q78 -512 78 -700z" />
    <glyph glyph-name="logicalnot" unicode="&#xac;" 
d="M960 886v-486h-141v345h-697v141h838z" />
    <glyph glyph-name="radical" unicode="&#x221a;" 
d="M751 1349l-384 -1349h-142l-209 268l98 83l150 -194l374 1314h450v-122h-337z" />
    <glyph glyph-name="florin" unicode="&#x192;" horiz-adv-x="795" 
d="M802 1332q-76 28 -118 28q-199 0 -237 -288q34 -2 70 -2q84 0 181 10l-13 -116q-167 -24 -265 -29l-165 -1008q-24 -144 -125.5 -231t-251.5 -104q-1 -1 -3 5t-7.5 20.5t-11.5 33.5l-19 57q-13 37 -13 39q81 16 156 68t85 112l166 999q-44 0 -151 -13l30 158l147 1
q88 438 439 438q53 0 142 -30z" />
    <glyph glyph-name="approxequal" unicode="&#x2248;" 
d="M904 836q-53 -207 -192 -207q-66 0 -186.5 38.5t-168.5 38.5q-71 0 -108 -77h-91q14 86 65 146.5t119 60.5q72 0 194 -38.5t172 -38.5q81 0 108 77h88zM904 506q-53 -207 -192 -207q-66 0 -186.5 38.5t-168.5 38.5q-71 0 -108 -77h-91q14 86 65 146.5t119 60.5
q72 0 194 -38.5t172 -38.5q81 0 108 77h88z" />
    <glyph glyph-name="Delta" unicode="&#x394;" horiz-adv-x="1198" 
d="M25 0v124l526 1341h144l480 -1341v-124h-1150zM619 1216l-376 -1046h725z" />
    <glyph glyph-name="guillemotleft" unicode="&#xab;" 
d="M129 535v64l355 244v-125l-212 -157l212 -138v-125zM528 535v64l355 244v-125l-212 -157l212 -138v-125z" />
    <glyph glyph-name="guillemotright" unicode="&#xbb;" 
d="M524 535l-355 -237v125l212 138l-212 157v125l355 -244v-64zM923 535l-355 -237v125l212 138l-212 157v125l355 -244v-64z" />
    <glyph glyph-name="ellipsis" unicode="&#x2026;" horiz-adv-x="1504" 
d="M400 131q0 -62 -44 -106.5t-106 -44.5t-106 44.5t-44 106.5t44 106t106 44t106 -44t44 -106zM902 131q0 -62 -44 -106.5t-106 -44.5t-106 44.5t-44 106.5t44 106t106 44t106 -44t44 -106zM1404 131q0 -62 -44 -106.5t-106 -44.5t-106 44.5t-44 106.5t44 106t106 44
t106 -44t44 -106z" />
    <glyph glyph-name="nonbreakingspace" unicode="&#xa0;" horiz-adv-x="617" 
 />
    <glyph glyph-name="Agrave" unicode="&#xc0;" horiz-adv-x="1208" 
d="M776 1608v0v0zM872 1680zM334 554v-27l62 -17l307 9l-17 114l-18 9l-26 149l-62 185h-17l-167 -334zM580 1187q35 0 70 -44l71 -229v-70q79 -167 52 -202l36 -62q70 -228 114 -316q-18 -27 44 -88v-114l-35 -18q-35 -9 -71 53l-79 237q-9 53 -88 70l-52 -8l-378 17
q-106 -220 -150 -404q-35 -18 -70 0q0 53 -35 79l35 61q-18 9 35 123l35 44l71 176l35 44v27l26 26q26 105 62 149l26 27l18 61l87 132l44 97l27 17l35 97zM880 1672zM292 1917q89 0 98 -77l3 -78q15 -66 6 -127q18 -129 -9 -154q-80 -9 -114 60l-18 239q-18 104 34 137z
" />
    <glyph glyph-name="Atilde" unicode="&#xc3;" horiz-adv-x="1208" 
d="M776 1608v0v0zM872 1680zM334 554v-27l62 -17l307 9l-17 114l-18 9l-26 149l-62 185h-17l-167 -334zM580 1187q35 0 70 -44l71 -229v-70q79 -167 52 -202l36 -62q70 -228 114 -316q-18 -27 44 -88v-114l-35 -18q-35 -9 -71 53l-79 237q-9 53 -88 70l-52 -8l-378 17
q-106 -220 -150 -404q-35 -18 -70 0q0 53 -35 79l35 61q-18 9 35 123l35 44l71 176l35 44v27l26 26q26 105 62 149l26 27l18 61l87 132l44 97l27 17l35 97zM880 1672zM932 1792q-53 -207 -192 -207q-63 0 -138.5 38.5t-106.5 38.5q-71 0 -108 -77h-91q14 84 64.5 145.5
t119.5 61.5q82 0 151.5 -38.5t104.5 -38.5q81 0 108 77h88z" />
    <glyph glyph-name="Otilde" unicode="&#xd5;" horiz-adv-x="1380" 
d="M80 745zM628 1244zM388 188q71 -23 283 47q153 83 212 177q70 141 82 141l71 283l-36 188l-82 106l-176 12l-24 23l-247 -35q-94 -71 -141 -153l-142 -365q-23 -118 59 -330q47 -58 141 -94zM553 1318h200l212 -70l118 -106q82 -130 73 -278l-3 -181q-21 -103 -70 -224
l-35 -35q-12 -84 -201 -271l-282 -129q-77 -16 -188 -12q-281 88 -330 400l12 294l35 47q24 153 153 353l94 106zM1000 1792q-53 -207 -192 -207q-63 0 -138.5 38.5t-106.5 38.5q-71 0 -108 -77h-91q14 84 64.5 145.5t119.5 61.5q82 0 151.5 -38.5t104.5 -38.5q81 0 108 77
h88z" />
    <glyph glyph-name="OE" unicode="&#x152;" horiz-adv-x="2034" 
d="M1287 1285v-407h484v-170h-484v-528h664v-180h-864v138q-161 -163 -430 -163q-277 0 -433.5 216t-156.5 554q0 318 159.5 532t430.5 214q270 0 430 -156v130h875v-180h-675zM277 745q0 -252 99.5 -421t280.5 -169q205 0 312.5 155t107.5 435q0 566 -420 566
q-186 0 -283 -152t-97 -414z" />
    <glyph glyph-name="oe" unicode="&#x153;" horiz-adv-x="1893" 
d="M942 892q149 199 389 199q222 0 353.5 -133t131.5 -345q0 -46 -15 -96h-762q0 -171 89 -274t238 -103q168 0 274 101l80 -152q-124 -109 -391 -109q-254 0 -396 193q-129 -193 -387 -193q-229 0 -357 151t-128 407q0 248 133.5 400.5t351.5 152.5q271 0 396 -199z
M1039 655h598q0 123 -84.5 199.5t-222.5 76.5q-104 0 -197.5 -86t-93.5 -190zM261 538q0 -388 285 -388q138 0 211 104.5t73 283.5q0 383 -284 383q-134 0 -209.5 -100t-75.5 -283z" />
    <glyph glyph-name="endash" unicode="&#x2013;" horiz-adv-x="752" 
d="M93 532v96h521v-96h-521z" />
    <glyph glyph-name="emdash" unicode="&#x2014;" horiz-adv-x="1504" 
d="M93 532v96h1309v-96h-1309z" />
    <glyph glyph-name="quotedblleft" unicode="&#x201c;" 
d="M263 1457q-13 77 26 103q64 0 71 -58l-7 -83q19 -26 13 -71l-13 -51q26 -45 7 -64q-58 -7 -84 45zM723 1457q-13 77 26 103q64 0 71 -58l-7 -83q19 -26 13 -71l-13 -51q26 -45 7 -64q-58 -7 -84 45z" />
    <glyph glyph-name="quotedblright" unicode="&#x201d;" 
d="M289 1560q64 0 71 -58l-7 -83q19 -26 13 -71l-13 -51q26 -45 7 -64q-58 -7 -84 45l-13 179q-13 77 26 103zM749 1560q64 0 71 -58l-7 -83q19 -26 13 -71l-13 -51q26 -45 7 -64q-58 -7 -84 45l-13 179q-13 77 26 103z" />
    <glyph glyph-name="quoteleft" unicode="&#x2018;" horiz-adv-x="752" 
d="M263 1457q-13 77 26 103q64 0 71 -58l-7 -83q19 -26 13 -71l-13 -51q26 -45 7 -64q-58 -7 -84 45z" />
    <glyph glyph-name="quoteright" unicode="&#x2019;" horiz-adv-x="752" 
d="M289 1560q64 0 71 -58l-7 -83q19 -26 13 -71l-13 -51q26 -45 7 -64q-58 -7 -84 45l-13 179q-13 77 26 103z" />
    <glyph glyph-name="divide" unicode="&#xf7;" 
d="M694 1000q0 -62 -44 -106.5t-106 -44.5t-106 44.5t-44 106.5t44 106t106 44t106 -44t44 -106zM960 705v-141h-838v141h838zM694 250q0 -62 -44 -106.5t-106 -44.5t-106 44.5t-44 106.5t44 106t106 44t106 -44t44 -106z" />
    <glyph glyph-name="lozenge" unicode="&#x25ca;" horiz-adv-x="1012" 
d="M549 1422l418 -713l-418 -709h-111l-391 709l391 713h111zM495 1325l-340 -616l340 -615l359 615z" />
    <glyph glyph-name="ydieresis" unicode="&#xff;" horiz-adv-x="1010" 
d="M680 -248zM688 -256zM311 1029q54 11 64 -64l-43 -257q11 -65 -32 -343l22 -97l32 -11l86 33l139 117l204 279l21 75q-21 11 11 236l54 43q85 11 85 -64q-21 -172 11 -676l-64 -547q-65 -139 -140 -203q-85 -65 -225 -86h-64l-43 32l-54 -21q-43 42 -96 10
q-140 65 -193 43l-32 65l21 96h86q32 -32 107 -21l32 -22l129 -21l32 10l107 -10l150 107q54 86 75 182q0 225 22 247l-11 322l-32 -11q-139 -215 -214 -268q-33 0 -151 -97l-117 -21q-108 21 -129 257l32 333l21 42q-21 22 11 54l-11 43l22 32q-11 86 75 182z" />
    <glyph glyph-name="Ydieresis" unicode="&#x178;" horiz-adv-x="1168" 
d="M636 1004zM809 1393l61 -52l-10 -71l-82 -113l-20 -72l-205 -317l-123 -225l-10 -62l-51 -71l-11 -62l-41 -61l-41 -195l-40 -31q-113 0 -103 52v51l62 133l30 123l41 61l21 82q102 154 82 225q-123 236 -174 277v41l-144 215v82l21 20q41 31 112 -61l246 -430l31 -31
l31 10l256 441l71 41h-10zM640 1000z" />
    <glyph glyph-name="fraction" unicode="&#x2044;" horiz-adv-x="1083" 
d="M131 -35h-127l973 1526h126z" />
    <glyph glyph-name="fraction" unicode="&#x2215;" horiz-adv-x="1083" 
d="M131 -35h-127l973 1526h126z" />
    <glyph glyph-name="currency" unicode="&#xa4;" 
d="M932 246l-143 144q-121 -84 -253 -84q-131 0 -253 84l-143 -144l-84 88l143 140q-82 127 -82 252q0 124 82 251l-143 140l84 88l143 -143q122 83 253 83q132 0 253 -83l143 143l85 -88l-143 -140q82 -127 82 -251q0 -125 -82 -252l143 -140zM236 726q0 -125 87 -212.5
t212 -87.5q124 0 211.5 88t87.5 212q0 125 -87 212t-212 87t-212 -87t-87 -212z" />
    <glyph glyph-name="guilsinglleft" unicode="&#x2039;" horiz-adv-x="752" 
d="M171 535v64l355 244v-125l-212 -157l212 -138v-125z" />
    <glyph glyph-name="guilsinglright" unicode="&#x203a;" horiz-adv-x="752" 
d="M566 535l-355 -237v125l212 138l-212 157v125l355 -244v-64z" />
    <glyph glyph-name="fi" unicode="&#xf001;" horiz-adv-x="1187" 
d="M843 0v911h-444v-911h-190v911h-156v160h156q0 205 101 322t267 117q83 0 178 -30l-53 -140q-58 20 -108 20q-87 0 -143.5 -66t-56.5 -167q0 -27 5 -56h637v-1071h-193zM917 1476q49 0 83.5 -34.5t34.5 -82.5q0 -49 -34.5 -83.5t-83.5 -34.5q-48 0 -82.5 34.5t-34.5 83.5
t34 83t83 34z" />
    <glyph glyph-name="fi" unicode="&#xfb01;" horiz-adv-x="1187" 
d="M843 0v911h-444v-911h-190v911h-156v160h156q0 205 101 322t267 117q83 0 178 -30l-53 -140q-58 20 -108 20q-87 0 -143.5 -66t-56.5 -167q0 -27 5 -56h637v-1071h-193zM917 1476q49 0 83.5 -34.5t34.5 -82.5q0 -49 -34.5 -83.5t-83.5 -34.5q-48 0 -82.5 34.5t-34.5 83.5
t34 83t83 34z" />
    <glyph glyph-name="fl" unicode="&#xf002;" horiz-adv-x="1230" 
d="M1145 -20q-176 0 -252.5 73t-76.5 250v982q-26 30 -87 52.5t-123 22.5q-87 0 -143.5 -66t-56.5 -167q0 -27 5 -56h188v-160h-188v-911h-190v911h-156v160h156q0 205 101 322t267 117q147 0 227 -47v27h190v-1155q0 -185 139 -185v-170z" />
    <glyph glyph-name="fl" unicode="&#xfb02;" horiz-adv-x="1230" 
d="M1145 -20q-176 0 -252.5 73t-76.5 250v982q-26 30 -87 52.5t-123 22.5q-87 0 -143.5 -66t-56.5 -167q0 -27 5 -56h188v-160h-188v-911h-190v911h-156v160h156q0 205 101 322t267 117q147 0 227 -47v27h190v-1155q0 -185 139 -185v-170z" />
    <glyph glyph-name="daggerdbl" unicode="&#x2021;" horiz-adv-x="940" 
d="M915 381v-140h-370v-491l-76 -94l-74 94v491h-370v140h370v550h-370v140h370v314h150v-314h370v-140h-370v-550h370z" />
    <glyph glyph-name="periodcentered" unicode="&#x2219;" horiz-adv-x="752" 
d="M355 801q62 0 106 -44t44 -106t-44 -106.5t-106 -44.5t-106 44.5t-44 106.5t44 106t106 44z" />
    <glyph glyph-name="quotesinglbase" unicode="&#x201a;" horiz-adv-x="752" 
d="M273 398l71 -6q13 -20 51 -13l20 -32v-109l-52 -142l-19 -19l-58 -122l-13 -6q-25 -71 -57 -90q12 -7 -26 -71l-19 -19q-58 13 -58 51v39l45 51l51 103l13 6l38 90l20 19l19 58q-83 -6 -90 96q19 97 64 116z" />
    <glyph glyph-name="quotedblbase" unicode="&#x201e;" 
d="M218 398l71 -6q13 -20 51 -13l20 -32v-109l-52 -142l-19 -19l-58 -122l-13 -6q-25 -71 -57 -90q12 -7 -26 -71l-19 -19q-58 13 -58 51v39l45 51l51 103l13 6l38 90l20 19l19 58q-83 -6 -90 96q19 97 64 116zM648 398l71 -6q13 -20 51 -13l20 -32v-109l-52 -142l-19 -19
l-58 -122l-13 -6q-25 -71 -57 -90q12 -7 -26 -71l-19 -19q-58 13 -58 51v39l45 51l51 103l13 6l38 90l20 19l19 58q-83 -6 -90 96q19 97 64 116z" />
    <glyph glyph-name="perthousand" unicode="&#x2030;" horiz-adv-x="1869" 
d="M218 -20h-127l883 1511h126zM61 1162q0 147 81 238t206 91q123 0 196.5 -90t73.5 -258q0 -156 -78 -247.5t-201 -91.5q-278 0 -278 358zM187 1152q0 -117 39.5 -181.5t103.5 -64.5q162 0 162 245q0 238 -147 238q-73 0 -115.5 -64t-42.5 -173zM601 338q0 147 81 238
t206 91q123 0 196.5 -90t73.5 -258q0 -156 -78 -247.5t-201 -91.5q-278 0 -278 358zM727 328q0 -117 39.5 -181.5t103.5 -64.5q162 0 162 245q0 238 -147 238q-73 0 -115.5 -64t-42.5 -173zM1251 338q0 147 81 238t206 91q123 0 196.5 -90t73.5 -258q0 -156 -78 -247.5
t-201 -91.5q-278 0 -278 358zM1377 328q0 -117 39.5 -181.5t103.5 -64.5q162 0 162 245q0 238 -147 238q-73 0 -115.5 -64t-42.5 -173z" />
    <glyph glyph-name="Acircumflex" unicode="&#xc2;" horiz-adv-x="1208" 
d="M776 1608v0v0zM872 1680zM334 554v-27l62 -17l307 9l-17 114l-18 9l-26 149l-62 185h-17l-167 -334zM580 1187q35 0 70 -44l71 -229v-70q79 -167 52 -202l36 -62q70 -228 114 -316q-18 -27 44 -88v-114l-35 -18q-35 -9 -71 53l-79 237q-9 53 -88 70l-52 -8l-378 17
q-106 -220 -150 -404q-35 -18 -70 0q0 53 -35 79l35 61q-18 9 35 123l35 44l71 176l35 44v27l26 26q26 105 62 149l26 27l18 61l87 132l44 97l27 17l35 97zM880 1672zM778 1585l-163 189l-178 -189h-172l298 338h107l305 -338h-197z" />
    <glyph glyph-name="Ecircumflex" unicode="&#xca;" horiz-adv-x="1097" 
d="M296 1080zM824 1224l43 -10l195 43l43 -87q22 -43 -43 -86l-195 10l-54 -21l-141 -11v11l-336 -54l-76 -33l-11 -195l11 -76h76q65 44 184 44l11 -11l130 21v-10q238 21 271 -11v-44l-119 -10l-22 -33l-195 -22l-76 -32q-162 0 -282 -98l-10 -303l97 -11l228 54
q195 0 336 44v-11l43 11l11 -44v-32l-33 -33q-336 -86 -455 -86q-22 -33 -260 -76q-108 0 -130 54q22 22 0 292l43 380l-10 54l21 282q22 54 87 75q22 -21 206 0l119 33l303 32h-10zM300 1076zM718 1585l-163 189l-178 -189h-172l298 338h107l305 -338h-197z" />
    <glyph glyph-name="Aacute" unicode="&#xc1;" horiz-adv-x="1208" 
d="M776 1608v0v0zM872 1680zM334 554v-27l62 -17l307 9l-17 114l-18 9l-26 149l-62 185h-17l-167 -334zM580 1187q35 0 70 -44l71 -229v-70q79 -167 52 -202l36 -62q70 -228 114 -316q-18 -27 44 -88v-114l-35 -18q-35 -9 -71 53l-79 237q-9 53 -88 70l-52 -8l-378 17
q-106 -220 -150 -404q-35 -18 -70 0q0 53 -35 79l35 61q-18 9 35 123l35 44l71 176l35 44v27l26 26q26 105 62 149l26 27l18 61l87 132l44 97l27 17l35 97zM880 1672zM455 1864q-64 0 -71 -58l7 -83q-19 -26 -13 -71l-3 -48q-10 -48 9 -67q58 -7 84 45l13 179q13 77 -26 103
z" />
    <glyph glyph-name="Edieresis" unicode="&#xcb;" horiz-adv-x="1097" 
d="M296 1080zM824 1224l43 -10l195 43l43 -87q22 -43 -43 -86l-195 10l-54 -21l-141 -11v11l-336 -54l-76 -33l-11 -195l11 -76h76q65 44 184 44l11 -11l130 21v-10q238 21 271 -11v-44l-119 -10l-22 -33l-195 -22l-76 -32q-162 0 -282 -98l-10 -303l97 -11l228 54
q195 0 336 44v-11l43 11l11 -44v-32l-33 -33q-336 -86 -455 -86q-22 -33 -260 -76q-108 0 -130 54q22 22 0 292l43 380l-10 54l21 282q22 54 87 75q22 -21 206 0l119 33l303 32h-10zM300 1076z" />
    <glyph glyph-name="Egrave" unicode="&#xc8;" horiz-adv-x="1097" 
d="M296 1080zM824 1224l43 -10l195 43l43 -87q22 -43 -43 -86l-195 10l-54 -21l-141 -11v11l-336 -54l-76 -33l-11 -195l11 -76h76q65 44 184 44l11 -11l130 21v-10q238 21 271 -11v-44l-119 -10l-22 -33l-195 -22l-76 -32q-162 0 -282 -98l-10 -303l97 -11l228 54
q195 0 336 44v-11l43 11l11 -44v-32l-33 -33q-336 -86 -455 -86q-22 -33 -260 -76q-108 0 -130 54q22 22 0 292l43 380l-10 54l21 282q22 54 87 75q22 -21 206 0l119 33l303 32h-10zM300 1076zM306 1917q89 0 98 -77l3 -78q15 -66 6 -127q18 -129 -9 -154q-80 -9 -114 60
l-18 239q-18 104 34 137z" />
    <glyph glyph-name="Iacute" unicode="&#xcd;" horiz-adv-x="570" 
d="M256 132zM334 1261l194 -11l162 22v-11q151 32 345 22l43 -22l97 11l21 -22l-10 -64q-302 -65 -475 -54q-64 -22 -43 -97l-54 -227v-75l-118 -474v-33l43 -21q43 21 321 31q132 1 153 -53l-43 -64l-388 -33l-43 -21q-162 10 -162 -22l-161 11q-120 -6 -162 43v43l75 43
l194 11l54 22q-11 64 22 86q-22 21 11 269l64 248l33 216l-11 75l-33 -11q-161 0 -161 54q-11 97 32 108zM260 128zM173 1864q-64 0 -71 -58l7 -83q-19 -26 -13 -71l-3 -48q-10 -48 9 -67q58 -7 84 45l13 179q13 77 -26 103z" />
    <glyph glyph-name="Icircumflex" unicode="&#xce;" horiz-adv-x="570" 
d="M256 132zM334 1261l194 -11l162 22v-11q151 32 345 22l43 -22l97 11l21 -22l-10 -64q-302 -65 -475 -54q-64 -22 -43 -97l-54 -227v-75l-118 -474v-33l43 -21q43 21 321 31q132 1 153 -53l-43 -64l-388 -33l-43 -21q-162 10 -162 -22l-161 11q-120 -6 -162 43v43l75 43
l194 11l54 22q-11 64 22 86q-22 21 11 269l64 248l33 216l-11 75l-33 -11q-161 0 -161 54q-11 97 32 108zM260 128zM433 1585l-163 189l-178 -189h-172l298 338h107l305 -338h-197z" />
    <glyph glyph-name="Idieresis" unicode="&#xcf;" horiz-adv-x="570" 
d="M256 132zM334 1261l194 -11l162 22v-11q151 32 345 22l43 -22l97 11l21 -22l-10 -64q-302 -65 -475 -54q-64 -22 -43 -97l-54 -227v-75l-118 -474v-33l43 -21q43 21 321 31q132 1 153 -53l-43 -64l-388 -33l-43 -21q-162 10 -162 -22l-161 11q-120 -6 -162 43v43l75 43
l194 11l54 22q-11 64 22 86q-22 21 11 269l64 248l33 216l-11 75l-33 -11q-161 0 -161 54q-11 97 32 108zM260 128z" />
    <glyph glyph-name="Igrave" unicode="&#xcc;" horiz-adv-x="570" 
d="M256 132zM334 1261l194 -11l162 22v-11q151 32 345 22l43 -22l97 11l21 -22l-10 -64q-302 -65 -475 -54q-64 -22 -43 -97l-54 -227v-75l-118 -474v-33l43 -21q43 21 321 31q132 1 153 -53l-43 -64l-388 -33l-43 -21q-162 10 -162 -22l-161 11q-120 -6 -162 43v43l75 43
l194 11l54 22q-11 64 22 86q-22 21 11 269l64 248l33 216l-11 75l-33 -11q-161 0 -161 54q-11 97 32 108zM260 128zM43 1917q89 0 98 -77l3 -78q15 -66 6 -127q18 -129 -9 -154q-80 -9 -114 60l-18 239q-18 104 34 137z" />
    <glyph glyph-name="Oacute" unicode="&#xd3;" horiz-adv-x="1380" 
d="M80 745zM628 1244zM388 188q71 -23 283 47q153 83 212 177q70 141 82 141l71 283l-36 188l-82 106l-176 12l-24 23l-247 -35q-94 -71 -141 -153l-142 -365q-23 -118 59 -330q47 -58 141 -94zM553 1318h200l212 -70l118 -106q82 -130 73 -278l-3 -181q-21 -103 -70 -224
l-35 -35q-12 -84 -201 -271l-282 -129q-77 -16 -188 -12q-281 88 -330 400l12 294l35 47q24 153 153 353l94 106zM485 1864q-64 0 -71 -58l7 -83q-19 -26 -13 -71l-3 -48q-10 -48 9 -67q58 -7 84 45l13 179q13 77 -26 103z" />
    <glyph glyph-name="Ocircumflex" unicode="&#xd4;" horiz-adv-x="1380" 
d="M80 745zM628 1244zM388 188q71 -23 283 47q153 83 212 177q70 141 82 141l71 283l-36 188l-82 106l-176 12l-24 23l-247 -35q-94 -71 -141 -153l-142 -365q-23 -118 59 -330q47 -58 141 -94zM553 1318h200l212 -70l118 -106q82 -130 73 -278l-3 -181q-21 -103 -70 -224
l-35 -35q-12 -84 -201 -271l-282 -129q-77 -16 -188 -12q-281 88 -330 400l12 294l35 47q24 153 153 353l94 106zM828 1585l-163 189l-178 -189h-172l298 338h107l305 -338h-197z" />
    <glyph glyph-name="apple" unicode="&#xf000;" horiz-adv-x="1028" 
 />
    <glyph glyph-name="Ograve" unicode="&#xd2;" horiz-adv-x="1380" 
d="M80 745zM628 1244zM388 188q71 -23 283 47q153 83 212 177q70 141 82 141l71 283l-36 188l-82 106l-176 12l-24 23l-247 -35q-94 -71 -141 -153l-142 -365q-23 -118 59 -330q47 -58 141 -94zM553 1318h200l212 -70l118 -106q82 -130 73 -278l-3 -181q-21 -103 -70 -224
l-35 -35q-12 -84 -201 -271l-282 -129q-77 -16 -188 -12q-281 88 -330 400l12 294l35 47q24 153 153 353l94 106zM432 1917q89 0 98 -77l3 -78q15 -66 6 -127q18 -129 -9 -154q-80 -9 -114 60l-18 239q-18 104 34 137z" />
    <glyph glyph-name="Uacute" unicode="&#xda;" horiz-adv-x="1328" 
d="M160 1488v0v0zM208 1264l72 -64q-56 -200 -56 -400l11 -435l36 -106l106 -59h164l165 82q247 224 318 636l-24 259l56 63l74 -39l23 -306l-94 -377l-94 -188l-141 -165l-47 -12l-83 -59l-94 -12l-23 -35l-83 -35q-82 -12 -106 23l-47 -11l-188 117q-94 153 -94 353
q-12 518 82 707zM450 1864q-64 0 -71 -58l7 -83q-19 -26 -13 -71l-3 -48q-10 -48 9 -67q58 -7 84 45l13 179q13 77 -26 103z" />
    <glyph glyph-name="Ucircumflex" unicode="&#xdb;" horiz-adv-x="1328" 
d="M160 1488v0v0zM208 1264l72 -64q-56 -200 -56 -400l11 -435l36 -106l106 -59h164l165 82q247 224 318 636l-24 259l56 63l74 -39l23 -306l-94 -377l-94 -188l-141 -165l-47 -12l-83 -59l-94 -12l-23 -35l-83 -35q-82 -12 -106 23l-47 -11l-188 117q-94 153 -94 353
q-12 518 82 707zM792 1585l-163 189l-178 -189h-172l298 338h107l305 -338h-197z" />
    <glyph glyph-name="Ugrave" unicode="&#xd9;" horiz-adv-x="1328" 
d="M160 1488v0v0zM208 1264l72 -64q-56 -200 -56 -400l11 -435l36 -106l106 -59h164l165 82q247 224 318 636l-24 259l56 63l74 -39l23 -306l-94 -377l-94 -188l-141 -165l-47 -12l-83 -59l-94 -12l-23 -35l-83 -35q-82 -12 -106 23l-47 -11l-188 117q-94 153 -94 353
q-12 518 82 707zM373 1917q89 0 98 -77l3 -78q15 -66 6 -127q18 -129 -9 -154q-80 -9 -114 60l-18 239q-18 104 34 137z" />
    <glyph glyph-name="dotlessi" unicode="&#x131;" horiz-adv-x="584" 
d="M227 0v911h-147v160h340v-1071h-193z" />
    <glyph glyph-name="circumflex" unicode="&#x2c6;" 
d="M682 1285l-163 189l-178 -189h-172l298 338h107l305 -338h-197z" />
    <glyph glyph-name="tilde" unicode="&#x2dc;" 
d="M840 1492q-53 -207 -192 -207q-63 0 -138.5 38.5t-106.5 38.5q-71 0 -108 -77h-91q14 84 64.5 145.5t119.5 61.5q82 0 151.5 -38.5t104.5 -38.5q81 0 108 77h88z" />
    <glyph glyph-name="macron" unicode="&#x2c9;" 
d="M913 1426v-141h-738v141h738z" />
    <glyph glyph-name="breve" unicode="&#x2d8;" 
d="M870 1610q0 -118 -94 -221.5t-250 -103.5q-149 0 -234 94t-85 231h141q-3 -61 51 -116t127 -55q85 0 143 51.5t58 119.5h143z" />
    <glyph glyph-name="dotaccent" unicode="&#x2d9;" 
d="M535 1520q49 0 83.5 -34.5t34.5 -82.5q0 -49 -34.5 -83.5t-83.5 -34.5q-48 0 -82.5 34.5t-34.5 83.5t34 83t83 34z" />
    <glyph glyph-name="ring" unicode="&#x2da;" 
d="M508 1704q88 0 149.5 -61t61.5 -148t-62 -148.5t-149 -61.5q-88 0 -150 61.5t-62 148.5t62 148t150 61zM508 1395q42 0 71.5 29.5t29.5 70.5t-29.5 70t-71.5 29t-72 -29t-30 -70t30 -70.5t72 -29.5z" />
    <glyph glyph-name="cedilla" unicode="&#xb8;" 
d="M355 -455l-24 99q78 0 130 27t52 75q0 74 -90 74v119q99 0 154 -56t55 -137q0 -94 -73 -147.5t-204 -53.5z" />
    <glyph glyph-name="hungarumlaut" unicode="&#x2dd;" 
d="M540 1568l-199 -283h-140l142 283h197zM910 1568l-199 -283h-140l142 283h197z" />
    <glyph glyph-name="ogonek" unicode="&#x2db;" 
d="M714 -196l67 -142q-96 -35 -178 -35q-117 0 -194.5 69t-77.5 179q0 174 205 286l58 -161q-66 -32 -82 -59.5t-16 -73.5q0 -94 111 -94q54 0 107 31z" />
    <glyph glyph-name="caron" unicode="&#x2c7;" 
d="M879 1619l-305 -334h-107l-298 338h172l178 -192l163 188h197z" />
    <glyph glyph-name="Lslash" unicode="&#x141;" horiz-adv-x="1037" 
d="M485 1045v-131l-135 -95v-639h662v-180h-862v679l-152 -106v144l152 102v646h200v-511z" />
    <glyph glyph-name="lslash" unicode="&#x142;" horiz-adv-x="610" 
d="M156 303v382l-107 -74v144l107 72v683h190v-555q24 16 139 90v-131l-139 -97v-482q0 -86 49.5 -135.5t129.5 -49.5v-170q-369 0 -369 323z" />
    <glyph glyph-name="Scaron" unicode="&#x160;" horiz-adv-x="985" 
d="M528 1016l200 176zM508 1104zM730 1189q86 19 176 0l177 -47l59 -106q-12 -59 -36 -59h-58l-71 71l-153 23l-294 -59l-177 -59l-82 -58q-63 -91 11 -165l518 -106l283 -106q176 -130 35 -294q-141 -130 -634 -192q-202 3 -356 4l-69 46q0 130 59 118l270 -23l271 23
l118 35q141 12 223 101v64l-129 59l-118 24l-188 11l-165 47q-32 7 -106 24q-106 35 -176 165q-90 398 612 459zM512 1100zM859 1919l-305 -334h-107l-298 338h172l178 -192l163 188h197z" />
    <glyph glyph-name="scaron" unicode="&#x161;" horiz-adv-x="829" 
d="M160 240zM168 232zM498 1011q135 0 202 -44q93 -79 85 -132l-9 -79l-17 -18h-25l-25 26q17 150 -211 159l-135 -62l-25 9l-160 -141v-53l67 -35q371 -18 438 -53q127 -97 119 -132q17 -44 -9 -88l9 -115q-237 -185 -439 -203l-109 18q-17 -18 -68 0l-93 53l-25 44
q-8 80 59 88h42q34 -70 76 -70q118 -18 210 0l85 35l84 53v18q59 9 59 26l-8 97l-34 27q0 69 -42 69l-160 27q-59 -18 -84 9q-42 -36 -194 0q-9 35 -51 35l-34 97q0 71 43 141l219 150q101 44 143 27zM762 1619l-305 -334h-107l-298 338h172l178 -192l163 188h197z" />
    <glyph glyph-name="Zcaron" unicode="&#x17d;" horiz-adv-x="1127" 
d="M228 308zM773 1225q131 -10 291 30q40 -10 50 -60v-51l-80 -50l-60 -70q-121 -80 -372 -331l-10 -30l-70 -61l-10 -30l-131 -150l-130 -191l10 -10l803 70l60 -80l-30 -70l-140 20l-40 -20l-121 10q-241 -31 -251 -20l-100 -31l-10 10l-161 -30l-10 -20l-10 10l-171 -10
l-40 40l20 111l81 110l40 30l150 221l342 382l150 130l-10 20q-110 10 -110 -20l-71 20l-30 -20q-60 40 -361 -80l-60 80q30 81 110 81zM232 304zM898 1919l-305 -334h-107l-298 338h172l178 -192l163 188h197z" />
    <glyph glyph-name="zcaron" unicode="&#x17e;" horiz-adv-x="972" 
d="M330 178zM338 170zM86 826q-22 85 43 118l493 75l96 -11q22 32 215 21l32 -43v-75l-129 -85l-182 -226q-21 11 -86 -64h-21l-236 -236l21 -32l504 22l150 -11q22 32 129 21l43 -64q11 -64 -32 -86l-472 11l-182 -32l-11 10q-96 11 -161 -21q-32 21 -193 0q-43 11 -43 64
l22 86l107 139l139 108q86 107 268 257l86 118l-43 11q-150 -22 -182 0l-43 -32q-150 -11 -257 -76h-43zM828 1619l-305 -334h-107l-298 338h172l178 -192l163 188h197z" />
    <glyph glyph-name="brokenbar" unicode="&#xa6;" 
d="M472 694v723h146v-723h-146zM472 -276v723h146v-723h-146z" />
    <glyph glyph-name="Eth" unicode="&#xd0;" horiz-adv-x="1256" 
d="M15 691v160h135v614q282 10 361 10q307 0 486 -186.5t179 -496.5q0 -792 -731 -792h-295v691h-135zM350 851h149v-160h-149v-501q67 -10 166 -10q210 0 330 157.5t120 437.5q0 520 -467 520q-28 0 -149 -10v-434z" />
    <glyph glyph-name="eth" unicode="&#xf0;" horiz-adv-x="1125" 
d="M357 1252l159 84q-91 110 -176 174h251q29 -30 80 -92l173 92l46 -85l-159 -86q184 -283 241.5 -456.5t57.5 -344.5q0 -254 -128 -406t-356 -152q-229 0 -357 152t-128 406q0 243 131.5 398t353.5 155q77 0 146 -18q-64 112 -115 183l-174 -94zM251 538q0 -388 295 -388
q141 0 217.5 106t76.5 282q0 383 -294 383q-141 0 -218 -105t-77 -278z" />
    <glyph glyph-name="Yacute" unicode="&#xdd;" horiz-adv-x="1168" 
d="M636 1004zM809 1393l61 -52l-10 -71l-82 -113l-20 -72l-205 -317l-123 -225l-10 -62l-51 -71l-11 -62l-41 -61l-41 -195l-40 -31q-113 0 -103 52v51l62 133l30 123l41 61l21 82q102 154 82 225q-123 236 -174 277v41l-144 215v82l21 20q41 31 112 -61l246 -430l31 -31
l31 10l256 441l71 41h-10zM640 1000zM415 1864q-64 0 -71 -58l7 -83q-19 -26 -13 -71l-3 -48q-10 -48 9 -67q58 -7 84 45l13 179q13 77 -26 103z" />
    <glyph glyph-name="Thorn" unicode="&#xde;" horiz-adv-x="1138" 
d="M499 314h-148v-314h-201v1465h201v-190h74q638 0 638 -447q0 -245 -148.5 -379.5t-415.5 -134.5zM460 1095h-109v-601h134q372 0 372 313q0 150 -92 219t-305 69z" />
    <glyph glyph-name="thorn" unicode="&#xfe;" horiz-adv-x="1133" 
d="M325 59v-479h-190v1930h190v-527q108 108 261 108q228 0 355 -142t127 -416q0 -244 -128 -398.5t-370 -154.5q-166 0 -245 79zM325 830v-604q89 -76 189 -76q186 0 270 93.5t84 296.5q0 200 -83 290.5t-270 90.5q-40 0 -98 -28t-92 -63z" />
    <glyph glyph-name="minus" unicode="&#x2212;" 
d="M960 706v-141h-838v141h838z" />
    <glyph glyph-name="onesuperior" unicode="&#xb9;" horiz-adv-x="924" 
d="M439 595v674l-188 -112v113q197 99 282 208h36v-883h-130z" />
    <glyph glyph-name="twosuperior" unicode="&#xb2;" horiz-adv-x="924" 
d="M184 595v24l266 414q86 134 86 223q0 122 -128 122q-107 0 -169 -124l-77 63q26 74 93 123.5t147 49.5q264 0 264 -224q0 -120 -93 -266l-183 -287h334v-118h-540z" />
    <glyph glyph-name="threesuperior" unicode="&#xb3;" horiz-adv-x="929" 
d="M185 657l59 102q49 -54 148 -54q163 0 163 142q0 73 -46 118t-128 45h-10v102h6q148 0 148 139q0 119 -139 119q-85 0 -124 -44l-54 91q56 73 187 73q116 0 188 -62.5t72 -157.5q0 -73 -39.5 -128.5t-95.5 -76.5q165 -54 165 -227q0 -253 -295 -253q-129 0 -205 72z" />
    <glyph glyph-name="onehalf" unicode="&#xbd;" horiz-adv-x="1668" 
d="M247 1583q70 20 99 -49l-39 -179q-20 -395 0 -405l-50 -40q-69 40 -89 10l10 149l-20 19l10 10l-10 228l40 79l30 109l-10 10zM742 1514h40l29 -30v-49l-59 -80l-10 -49l-59 -89l-30 -99q-20 -20 -158 -327l-40 -49v-30l-119 -227q-19 -99 0 -119q-29 -109 -69 -138
q0 -80 -39 -80l-70 20q10 30 -29 69l59 188l89 188l10 50l30 30l247 504l20 69q79 109 79 149zM999 920l89 -20l60 -89q19 -59 -50 -158l-188 -208q-99 -49 -79 -79l257 30l218 -10q49 -30 59 -69l-19 -60l-70 20l-148 10q-89 -40 -109 -10q0 -30 -89 -30l-317 -29l-39 39
q-20 40 49 109l238 208l178 208l-10 29l-99 -10l-89 -29q-119 -79 -158 0v39l29 30q258 99 287 79z" />
    <glyph glyph-name="onequarter" unicode="&#xbc;" horiz-adv-x="1668" 
d="M158 1573h50q89 -79 69 -129l-10 -59l20 -39v-188q39 -20 -10 -119l-79 -69q-50 19 -59 168l9 10l-19 118l19 50l-9 218zM762 1464q79 -10 79 -29v-50l-20 -10q-30 -89 -138 -217l-30 -70l-89 -128v-40l-59 -59l-238 -475l-30 -129l-19 -20q-89 0 -89 80l59 197l49 60
l20 79l30 30l39 108l50 50l59 129q89 138 109 128l40 109l39 30l109 198zM801 979q60 0 80 -49l-40 -178q-30 -10 -30 -69l-20 -129l40 -40l40 30l39 -20l69 20l30 60q-10 148 30 187q69 20 99 -49q-20 -49 0 -178l79 20l40 -40v-79l-20 -20q-89 20 -109 -39
q-20 -149 0 -228l-50 -49l-39 10q-40 0 -50 247l-39 20l-149 -30l-118 10l-30 69l30 119q-10 109 19 178l20 30l30 148z" />
    <glyph glyph-name="threequarters" unicode="&#xbe;" horiz-adv-x="1668" 
d="M326 1623l149 -10l49 -70l-19 -148l-60 -89q-20 -20 89 -99l30 -69l-10 -119l-138 -138l-50 -30l-129 -30q-29 -10 -89 30l-39 49q-10 89 30 89h39l69 -39l99 29l70 70l59 29q-20 89 -129 109l-118 -10q-40 10 -40 70l10 49q227 89 218 228l-99 -20q-80 -89 -99 -69
l-50 59q-20 49 158 129zM930 1266h49l40 -49l-237 -346l-119 -119l-30 -69l-178 -208l-59 -109v-30q-40 -39 -50 -89l-29 -19q-70 0 -99 79l10 49l29 20l30 69l257 307l69 109l70 59l39 79l60 50q0 49 39 59v30zM960 831q59 -10 79 -59l-119 -287l-10 -89l20 -10l79 30
q0 148 50 227q49 30 99 -59l-30 -139l49 -29l70 9q69 -49 59 -69q0 -59 -79 -69q-20 20 -109 0l-20 -50q20 -9 0 -98q60 -90 -49 -109l-79 69l9 40l-9 108l-20 10l-60 -29l-89 -10l-49 79q49 109 30 168l69 188l49 69q10 69 60 109z" />
    <glyph glyph-name="mu1" unicode="&#xb5;" horiz-adv-x="1119" 
d="M325 18v-438h-190v1491h190v-623q0 -302 235 -302q84 0 148 43.5t87 105.5v776h190v-1071h-190v148q-34 -75 -112 -121.5t-175 -46.5q-108 0 -183 38z" />
    <glyph glyph-name="Ohm" unicode="&#x2126;" horiz-adv-x="1370" 
d="M1295 0h-500v152q161 148 225.5 285.5t64.5 307.5q0 566 -415 566q-187 0 -286 -153t-99 -413q0 -154 86.5 -337t203.5 -258v-150h-500v150h269q-269 209 -269 595q0 317 161.5 531.5t433.5 214.5q304 0 464.5 -196t160.5 -550q0 -183 -76 -342.5t-213 -252.5h289v-150z
" />
    <glyph glyph-name="Delta" unicode="&#x2206;" horiz-adv-x="1198" 
d="M25 0v124l526 1341h144l480 -1341v-124h-1150zM619 1216l-376 -1046h725z" />
    <glyph glyph-name="yacute" unicode="&#xfd;" horiz-adv-x="1010" 
d="M680 -248zM688 -256zM311 1029q54 11 64 -64l-43 -257q11 -65 -32 -343l22 -97l32 -11l86 33l139 117l204 279l21 75q-21 11 11 236l54 43q85 11 85 -64q-21 -172 11 -676l-64 -547q-65 -139 -140 -203q-85 -65 -225 -86h-64l-43 32l-54 -21q-43 42 -96 10
q-140 65 -193 43l-32 65l21 96h86q32 -32 107 -21l32 -22l129 -21l32 10l107 -10l150 107q54 86 75 182q0 225 22 247l-11 322l-32 -11q-139 -215 -214 -268q-33 0 -151 -97l-117 -21q-108 21 -129 257l32 333l21 42q-21 22 11 54l-11 43l22 32q-11 86 75 182zM351 1564
q-64 0 -71 -58l7 -83q-19 -26 -13 -71l-3 -48q-10 -48 9 -67q58 -7 84 45l13 179q13 77 -26 103z" />
    <glyph glyph-name="multiply" unicode="&#xd7;" 
d="M544 728l317 317l100 -99l-317 -317l314 -315l-100 -100l-314 315l-317 -317l-100 99l317 317l-321 321l100 100z" />
    <glyph glyph-name="sfthyphen" unicode="&#xad;" horiz-adv-x="752" 
d="M144 696zM152 688zM114 759l312 -10l406 41q20 31 208 21l52 -52q20 -94 -42 -104l-239 10l-31 -20v10l-302 -42l-10 11l-364 -11l-31 52q-21 94 41 94z" />
    <glyph glyph-name="dotlessj" unicode="&#xf006;" horiz-adv-x="751" 
d="M18 -420v170q196 0 268.5 59.5t72.5 195.5v906h-213v160h403v-1062q0 -221 -130 -325t-401 -104z" />
    <glyph glyph-name="f007" unicode="&#xf007;" horiz-adv-x="752" 
d="M411 1718l54 -57q-62 -61 -70 -82.5t-8 -39.5q0 -41 42 -75t42 -81q0 -98 -106 -98q-108 0 -108 145q0 168 154 288z" />
    <glyph glyph-name="franc" unicode="&#x20a3;" horiz-adv-x="1075" 
d="M350 1285v-407h515v-170h-515v-207h149v-160h-149v-341h-200v341h-135v160h135v964h905v-180h-705z" />
    <glyph glyph-name="Gbreve" unicode="&#x11e;" horiz-adv-x="1385" 
d="M944 1348zM757 1390l11 -10q216 86 345 -87v-97l-22 -10h-43l-54 75l-118 32l-173 -43l-129 -75l-259 -280q-86 -130 -140 -388l11 -162l54 -119l86 -32l194 11l216 95l108 45l128 31l33 174q43 140 54 258q-11 22 -172 -43q-227 -54 -313 -32l-32 54l21 65
q421 43 593 97l43 -11q33 -54 33 -108l-33 -151l-43 -75q-108 -388 -140 -388l-124 -8q-70 -25 -156 -52l-76 -28q-237 -128 -442 -53q-129 97 -172 291q-11 259 21 302l65 184l205 269l237 194h32zM948 1344zM1060 1910q0 -118 -94 -221.5t-250 -103.5q-149 0 -234 94
t-85 231h141q-3 -61 51 -116t127 -55q85 0 143 51.5t58 119.5h143z" />
    <glyph glyph-name="gbreve" unicode="&#x11f;" horiz-adv-x="1028" 
d="M404 -360zM674 506l-142 -134q-124 -79 -284 -79q-115 62 -92 147l48 119q62 97 162 159l193 62l109 -48l26 -64l6 -118zM160 399q-27 -44 88 -106q160 0 284 79l151 133l17 45v124l-26 62l-115 44l-196 -62q-97 -62 -159 -159zM62 337v113q0 91 98 215l168 124l168 71
q107 9 178 -18l106 -80q45 -44 53 -168l18 -319q27 -373 -89 -532q-35 -53 -177 -151l-121 -40q-80 -12 -134.5 -8t-131.5 14l-92 8l-53 53q-18 62 36 88q17 -26 142 -26l257 9l106 44l89 106l44 125q5 231 -7 323l-28 93l-151 -124l-169 -71q-266 -53 -310 151zM248 293
q160 0 284 79l151 133l17 45v124l-26 62l-115 44l-196 -62q-97 -62 -159 -159l-44 -160q-27 -44 88 -106zM810 1610q0 -118 -94 -221.5t-250 -103.5q-149 0 -234 94t-85 231h141q-3 -61 51 -116t127 -55q85 0 143 51.5t58 119.5h143z" />
    <glyph glyph-name="Idotaccent" unicode="&#x130;" horiz-adv-x="570" 
d="M256 132zM334 1261l194 -11l162 22v-11q151 32 345 22l43 -22l97 11l21 -22l-10 -64q-302 -65 -475 -54q-64 -22 -43 -97l-54 -227v-75l-118 -474v-33l43 -21q43 21 321 31q132 1 153 -53l-43 -64l-388 -33l-43 -21q-162 10 -162 -22l-161 11q-120 -6 -162 43v43l75 43
l194 11l54 22q-11 64 22 86q-22 21 11 269l64 248l33 216l-11 75l-33 -11q-161 0 -161 54q-11 97 32 108zM260 128zM283 1820q49 0 83.5 -34.5t34.5 -82.5q0 -49 -34.5 -83.5t-83.5 -34.5q-48 0 -82.5 34.5t-34.5 83.5t34 83t83 34z" />
    <glyph glyph-name="Scedilla" unicode="&#x15e;" horiz-adv-x="985" 
d="M528 1016l200 176zM508 1104zM730 1189q86 19 176 0l177 -47l59 -106q-12 -59 -36 -59h-58l-71 71l-153 23l-294 -59l-177 -59l-82 -58q-63 -91 11 -165l518 -106l283 -106q176 -130 35 -294q-141 -130 -634 -192q-202 3 -356 4l-69 46q0 130 59 118l270 -23l271 23
l118 35q141 12 223 101v64l-129 59l-118 24l-188 11l-165 47q-32 7 -106 24q-106 35 -176 165q-90 398 612 459zM512 1100zM305 -455l-24 99q78 0 130 27t52 75q0 74 -90 74v119q99 0 154 -56t55 -137q0 -94 -73 -147.5t-204 -53.5z" />
    <glyph glyph-name="scedilla" unicode="&#x15f;" horiz-adv-x="829" 
d="M160 240zM168 232zM498 1011q135 0 202 -44q93 -79 85 -132l-9 -79l-17 -18h-25l-25 26q17 150 -211 159l-135 -62l-25 9l-160 -141v-53l67 -35q371 -18 438 -53q127 -97 119 -132q17 -44 -9 -88l9 -115q-237 -185 -439 -203l-109 18q-17 -18 -68 0l-93 53l-25 44
q-8 80 59 88h42q34 -70 76 -70q118 -18 210 0l85 35l84 53v18q59 9 59 26l-8 97l-34 27q0 69 -42 69l-160 27q-59 -18 -84 9q-42 -36 -194 0q-9 35 -51 35l-34 97q0 71 43 141l219 150q101 44 143 27zM225 -455l-24 99q78 0 130 27t52 75q0 74 -90 74v119q99 0 154 -56
t55 -137q0 -94 -73 -147.5t-204 -53.5z" />
    <glyph glyph-name="Cacute" unicode="&#x106;" horiz-adv-x="1225" 
d="M1112 1288l72 -88l32 -48q2 -66 -31 -105h-67l-62 49l-104 32l-277 -93q-155 -118 -354 -351q-155 -286 -144 -324q-33 -39 67 -130l121 -39l255 13l166 52l44 -13l277 104l66 51h45l133 52l-23 -64l67 -52q-33 -66 -111 -78l-33 12l-487 -181l-321 -39h-155l-144 66
q-89 77 -89 220l22 156l78 181q100 155 165 241q67 70 300 238h33l78 66l210 65q75 7 171 7zM550 1864q-64 0 -71 -58l7 -83q-19 -26 -13 -71l-3 -48q-10 -48 9 -67q58 -7 84 45l13 179q13 77 -26 103z" />
    <glyph glyph-name="cacute" unicode="&#x107;" horiz-adv-x="1014" 
d="M592 944zM600 936zM160 461l8 -142l54 -80l150 -53l89 18l9 -9l115 27l169 106q26 106 88 80q53 -27 62 -89q-248 -195 -399 -239h-177l-35 18l-18 -9l-89 53q-151 159 -133 177q-18 89 36 248l35 36l62 106l133 133q80 71 266 80q124 9 142 -27q89 -62 115 -168l-17 -62
h-54l-26 27q-27 168 -195 159l-54 -35l-62 -9l-195 -160zM430 1564q-64 0 -71 -58l7 -83q-19 -26 -13 -71l-3 -48q-10 -48 9 -67q58 -7 84 45l13 179q13 77 -26 103z" />
    <glyph glyph-name="Ccaron" unicode="&#x10c;" horiz-adv-x="1225" 
d="M1112 1288l72 -88l32 -48q2 -66 -31 -105h-67l-62 49l-104 32l-277 -93q-155 -118 -354 -351q-155 -286 -144 -324q-33 -39 67 -130l121 -39l255 13l166 52l44 -13l277 104l66 51h45l133 52l-23 -64l67 -52q-33 -66 -111 -78l-33 12l-487 -181l-321 -39h-155l-144 66
q-89 77 -89 220l22 156l78 181q100 155 165 241q67 70 300 238h33l78 66l210 65q75 7 171 7zM1049 1919l-305 -334h-107l-298 338h172l178 -192l163 188h197z" />
    <glyph glyph-name="ccaron" unicode="&#x10d;" horiz-adv-x="1014" 
d="M592 944zM600 936zM160 461l8 -142l54 -80l150 -53l89 18l9 -9l115 27l169 106q26 106 88 80q53 -27 62 -89q-248 -195 -399 -239h-177l-35 18l-18 -9l-89 53q-151 159 -133 177q-18 89 36 248l35 36l62 106l133 133q80 71 266 80q124 9 142 -27q89 -62 115 -168l-17 -62
h-54l-26 27q-27 168 -195 159l-54 -35l-62 -9l-195 -160zM919 1619l-305 -334h-107l-298 338h172l178 -192l163 188h197z" />
    <glyph glyph-name="dcroat" unicode="&#x111;" horiz-adv-x="1141" 
d="M1004 1h-190v79q-99 -99 -288 -99q-201 0 -326 144t-125 384q0 241 144 411.5t343 170.5q166 0 252 -78v178h-249v150h249v169h190v-169h119v-150h-119v-1190zM814 239v574q-72 108 -197 108q-156 0 -249 -110.5t-93 -283.5q0 -377 352 -377q58 0 122.5 35.5t64.5 53.5z
" />
    <glyph glyph-name="overscore" unicode="&#xaf;" 
d="M136 1666l260 10l288 12q104 13 270 7l46 -29q19 -52 -37 -58l-219 -8l-19 2v6l-277 -17l-320 -6l-72 31q25 50 80 50z" />
    <glyph glyph-name="commaaccenthigh" unicode="&#xf005;" horiz-adv-x="752" 
d="M296 1083l-47 63q72 58 81.5 80.5t9.5 44.5q0 33 -34.5 66.5t-34.5 69.5q0 103 102 103q108 0 108 -124q0 -188 -185 -303z" />
    <glyph glyph-name="middot" unicode="&#xb7;" horiz-adv-x="752" 
d="M355 801q62 0 106 -44t44 -106t-44 -106.5t-106 -44.5t-106 44.5t-44 106.5t44 106t106 44z" />
    <glyph glyph-name="Abreve" unicode="&#x102;" horiz-adv-x="1208" 
d="M776 1608v0v0zM872 1680zM334 554v-27l62 -17l307 9l-17 114l-18 9l-26 149l-62 185h-17l-167 -334zM580 1187q35 0 70 -44l71 -229v-70q79 -167 52 -202l36 -62q70 -228 114 -316q-18 -27 44 -88v-114l-35 -18q-35 -9 -71 53l-79 237q-9 53 -88 70l-52 -8l-378 17
q-106 -220 -150 -404q-35 -18 -70 0q0 53 -35 79l35 61q-18 9 35 123l35 44l71 176l35 44v27l26 26q26 105 62 149l26 27l18 61l87 132l44 97l27 17l35 97zM880 1672zM954 1910q0 -118 -94 -221.5t-250 -103.5q-149 0 -234 94t-85 231h141q-3 -61 51 -116t127 -55
q85 0 143 51.5t58 119.5h143z" />
    <glyph glyph-name="abreve" unicode="&#x103;" horiz-adv-x="1076" 
d="M712 536zM199 207l-43 26v104l51 147l113 173q216 198 330 171l33 -24l-61 -165l-112 -190q-61 -86 -190 -198zM156 337v-104l43 -26l121 44q129 112 190 198l112 190l43 156l18 9v34q-147 17 -363 -181l-113 -173zM43 216q9 173 26 199l95 190l147 164q199 147 337 156
q112 34 162 -55l12 -56l-40 -142q-26 -90 -13 -162l17 -225l18 -60q34 -9 77 26l139 95l147 121l60 -9l-9 -43l-302 -277l-78 -103h-69q-60 34 -86 172l-35 268l-190 -250l-138 -113q-190 -69 -277 104zM199 207l121 44q129 112 190 198l112 190l43 156l18 9v34
q-147 17 -363 -181l-113 -173l-51 -147v-104zM850 1610q0 -118 -94 -221.5t-250 -103.5q-149 0 -234 94t-85 231h141q-3 -61 51 -116t127 -55q85 0 143 51.5t58 119.5h143z" />
    <glyph glyph-name="Aogonek" unicode="&#x104;" horiz-adv-x="1208" 
d="M1331 -338q-96 -35 -178 -35q-117 0 -194.5 69t-77.5 179q0 113 82 184l-82 250h-545l-108 -309h-224l595 1485h53l552 -1485h-65q-24 0 -58.5 -31t-34.5 -102q0 -40 33.5 -67t77.5 -27q54 0 107 31zM824 456l-208 645l-227 -645h435z" />
    <glyph glyph-name="aogonek" unicode="&#x105;" horiz-adv-x="1076" 
d="M1103 -196l67 -142q-96 -35 -178 -35q-117 0 -194.5 69t-77.5 179q0 94 61 172q-25 29 -41 76q-114 -143 -349 -143q-126 0 -218.5 91.5t-92.5 227.5q0 163 142.5 275.5t363.5 112.5q60 0 136 -26q0 260 -232 260q-178 0 -274 -96l-80 159q54 44 149.5 75.5t182.5 31.5
q233 0 338.5 -106t105.5 -337v-384q0 -141 84 -188v-95q-31 0 -47 1q-64 -37 -64 -115q0 -94 111 -94q54 0 107 31zM722 526q-90 20 -126 20q-144 0 -235 -74t-91 -175q0 -167 197 -167q144 0 255 137v259z" />
    <glyph glyph-name="Dcaron" unicode="&#x10e;" horiz-adv-x="1257" 
d="M449 1136zM206 258l189 22l132 66q78 89 111 89l100 122l66 155q11 143 -66 254l-73 54l-168 36l-257 -12q-34 -22 -45 -177zM269 1192l297 4q188 -67 210 -100v-22l100 -100l55 -188v-122q-44 -66 -44 -144l-100 -133l-122 -121l-177 -111l-277 -111l-33 -11l-77 22
l-34 89l11 199l-22 222h11q-10 223 10 415l1 138q34 33 191 74zM940 1919l-305 -334h-107l-298 338h172l178 -192l163 188h197z" />
    <glyph glyph-name="dcaron" unicode="&#x10f;" horiz-adv-x="1416" 
d="M840 448zM840 432h8h-8zM848 440zM239 168q18 -17 213 36q27 27 124 62l151 106l44 71l-9 27l18 124l-35 89q35 150 -107 195l-124 -18l-97 -71l-71 -97l-53 -27q-89 -124 -151 -319v-98q44 -53 97 -80zM895 1463q71 -53 63 -80l-18 -222q18 -53 0 -221l-45 -284
q-17 -115 9 -124q-35 -98 -9 -266l-44 -44h-62l-27 35l-35 -9l-71 -62q-35 18 -71 -44h-35q-187 -115 -328 -89l-98 62q-89 124 -80 151v115l80 186l151 222l106 89l178 88q88 -17 106 0l62 -35l71 -71l27 9l-9 62q44 461 26 470q9 44 53 62zM1236 1083l-47 63
q72 58 81.5 80.5t9.5 44.5q0 33 -34.5 66.5t-34.5 69.5q0 103 102 103q108 0 108 -124q0 -188 -185 -303z" />
    <glyph glyph-name="Dslash" unicode="&#x110;" horiz-adv-x="1256" 
d="M15 691v160h135v614q282 10 361 10q307 0 486 -186.5t179 -496.5q0 -792 -731 -792h-295v691h-135zM350 851h149v-160h-149v-501q67 -10 166 -10q210 0 330 157.5t120 437.5q0 520 -467 520q-28 0 -149 -10v-434z" />
    <glyph glyph-name="Eogonek" unicode="&#x118;" horiz-adv-x="1097" 
d="M976 -196l67 -142q-96 -35 -178 -35q-117 0 -194.5 69t-77.5 179q0 66 32 125h-475v1465h875v-180h-674v-407h483v-170h-483v-528h663v-180h-158q-4 0 -41.5 -23t-47 -50t-9.5 -60q0 -94 111 -94q54 0 107 31z" />
    <glyph glyph-name="eogonek" unicode="&#x119;" horiz-adv-x="1117" 
d="M865 -338q-96 -35 -178 -35q-117 0 -194.5 69t-77.5 179q0 46 22 121q-172 43 -272 182.5t-100 344.5q0 254 147.5 411t354.5 157q225 0 355 -125t130 -333q0 -46 -15 -116h-772q0 -179 92 -278t245 -99q163 0 272 95l79 -153q-122 -91 -309 -100q-64 -37 -64 -115
q0 -94 111 -94q54 0 107 31zM863 655q0 120 -78 198t-209 78q-125 0 -210 -79t-96 -197h593z" />
    <glyph glyph-name="Ecaron" unicode="&#x11a;" horiz-adv-x="1097" 
d="M296 1080zM824 1224l43 -10l195 43l43 -87q22 -43 -43 -86l-195 10l-54 -21l-141 -11v11l-336 -54l-76 -33l-11 -195l11 -76h76q65 44 184 44l11 -11l130 21v-10q238 21 271 -11v-44l-119 -10l-22 -33l-195 -22l-76 -32q-162 0 -282 -98l-10 -303l97 -11l228 54
q195 0 336 44v-11l43 11l11 -44v-32l-33 -33q-336 -86 -455 -86q-22 -33 -260 -76q-108 0 -130 54q22 22 0 292l43 380l-10 54l21 282q22 54 87 75q22 -21 206 0l119 33l303 32h-10zM300 1076zM939 1919l-305 -334h-107l-298 338h172l178 -192l163 188h197z" />
    <glyph glyph-name="ecaron" unicode="&#x11b;" horiz-adv-x="1117" 
d="M184 536zM224 608l80 8l86 60l98 12l221 100l18 74q27 55 -53 68h-107q-62 -25 -97 -56h-27l-107 -106l-64 -56zM567 1062q249 33 249 -167l-36 -192l-26 -39h-54l-115 -32q-151 -80 -204 -71l-186 -105q-44 -167 195 -246l27 8l88 -16l151 56q80 72 124 -17l-35 -55
q-45 -8 -98 -56l-80 -8l-53 -24h-115l-18 16q-53 -8 -150 56l-89 80q-53 63 -71 222l27 72l-9 32q26 8 26 80q98 159 124 159l9 24l142 136l89 56zM909 1619l-305 -334h-107l-298 338h172l178 -192l163 188h197z" />
    <glyph glyph-name="Lacute" unicode="&#x139;" horiz-adv-x="1037" 
d="M204 1148zM216 1229l75 -65v-162l-86 -636l11 -161l32 -11q108 22 129 0l140 32l335 22l43 -54q0 -97 -54 -97l-121 7l-544 -40q-111 -53 -133 11l22 194q-22 130 0 302l32 87l32 258l-10 11l43 259zM208 1144zM200 1864q-64 0 -71 -58l7 -83q-19 -26 -13 -71l-3 -48
q-10 -48 9 -67q58 -7 84 45l13 179q13 77 -26 103z" />
    <glyph glyph-name="lacute" unicode="&#x13a;" horiz-adv-x="604" 
d="M150 303l-14 1zM296 1464l5 -158l-47 -282q18 -66 0 -178l-38 -188l9 -66l-28 -94l10 -235l84 -66q94 19 151 0q47 38 206 47q19 47 113 28q9 -37 -28 -75q-207 -122 -376 -131l-160 19q-94 56 -112 150l-19 141l9 84q-19 19 10 75l-10 38q28 0 28 113l38 470l47 178
l20 106zM140 1864q-64 0 -71 -58l7 -83q-19 -26 -13 -71l-3 -48q-10 -48 9 -67q58 -7 84 45l13 179q13 77 -26 103z" />
    <glyph glyph-name="Lcaron" unicode="&#x13d;" horiz-adv-x="1037" 
d="M204 1148zM216 1229l75 -65v-162l-86 -636l11 -161l32 -11q108 22 129 0l140 32l335 22l43 -54q0 -97 -54 -97l-121 7l-544 -40q-111 -53 -133 11l22 194q-22 130 0 302l32 87l32 258l-10 11l43 259zM208 1144zM586 1064l-47 63q72 58 81.5 80.5t9.5 44.5
q0 33 -34.5 66.5t-34.5 69.5q0 103 102 103q108 0 108 -124q0 -188 -185 -303z" />
    <glyph glyph-name="lcaron" unicode="&#x13e;" horiz-adv-x="705" 
d="M150 303l-14 1zM296 1464l5 -158l-47 -282q18 -66 0 -178l-38 -188l9 -66l-28 -94l10 -235l84 -66q94 19 151 0q47 38 206 47q19 47 113 28q9 -37 -28 -75q-207 -122 -376 -131l-160 19q-94 56 -112 150l-19 141l9 84q-19 19 10 75l-10 38q28 0 28 113l38 470l47 178
l20 106zM526 1083l-47 63q72 58 81.5 80.5t9.5 44.5q0 33 -34.5 66.5t-34.5 69.5q0 103 102 103q108 0 108 -124q0 -188 -185 -303z" />
    <glyph glyph-name="Ldot" unicode="&#x13f;" horiz-adv-x="1037" 
d="M204 1148zM216 1229l75 -65v-162l-86 -636l11 -161l32 -11q108 22 129 0l140 32l335 22l43 -54q0 -97 -54 -97l-121 7l-544 -40q-111 -53 -133 11l22 194q-22 130 0 302l32 87l32 258l-10 11l43 259zM208 1144zM695 850q49 0 83.5 -34.5t34.5 -82.5q0 -49 -34.5 -83.5
t-83.5 -34.5q-48 0 -82.5 34.5t-34.5 83.5t34 83t83 34z" />
    <glyph glyph-name="ldot" unicode="&#x140;" horiz-adv-x="675" 
d="M150 303l-14 1zM296 1464l5 -158l-47 -282q18 -66 0 -178l-38 -188l9 -66l-28 -94l10 -235l84 -66q94 19 151 0q47 38 206 47q19 47 113 28q9 -37 -28 -75q-207 -122 -376 -131l-160 19q-94 56 -112 150l-19 141l9 84q-19 19 10 75l-10 38q28 0 28 113l38 470l47 178
l20 106zM635 890q49 0 83.5 -34.5t34.5 -82.5q0 -49 -34.5 -83.5t-83.5 -34.5q-48 0 -82.5 34.5t-34.5 83.5t34 83t83 34z" />
    <glyph glyph-name="Nacute" unicode="&#x143;" horiz-adv-x="1307" 
d="M1000 332zM1059 1318l71 -82l-24 -271q24 -94 -11 -435l11 -83q-35 -94 -23 -200l-47 -59l-83 24q-58 82 -129 118l-483 600q-35 -35 -47 -165l12 -47l-71 -353l-11 -259l-36 -47q-106 -35 -117 70q-12 212 23 365l24 47l11 153l95 471l35 36q82 11 118 -24l82 -94
l47 -106l35 -24l24 -58l318 -377l59 -47l47 165v353l-24 117q35 36 24 177zM1004 328zM460 1864q-64 0 -71 -58l7 -83q-19 -26 -13 -71l-3 -48q-10 -48 9 -67q58 -7 84 45l13 179q13 77 -26 103z" />
    <glyph glyph-name="nacute" unicode="&#x144;" horiz-adv-x="1119" 
d="M728 480zM736 472zM695 958q113 0 113 -122q-28 -329 28 -658l-47 -75l-75 19q-56 66 -47 169l9 10q-18 244 10 432l-10 75l-56 -9l-85 -123l-56 -84l-235 -385l-47 -151q-28 -47 -94 -28l-37 75l9 10l-9 112l75 630l37 37l66 -46q-19 -94 0 -141l-19 -123
q-28 -28 -29 -194q67 63 76 91l188 310l113 122q47 0 66 38l66 9h-10zM390 1564q-64 0 -71 -58l7 -83q-19 -26 -13 -71l-3 -48q-10 -48 9 -67q58 -7 84 45l13 179q13 77 -26 103z" />
    <glyph glyph-name="Ncaron" unicode="&#x147;" horiz-adv-x="1307" 
d="M1000 332zM1059 1318l71 -82l-24 -271q24 -94 -11 -435l11 -83q-35 -94 -23 -200l-47 -59l-83 24q-58 82 -129 118l-483 600q-35 -35 -47 -165l12 -47l-71 -353l-11 -259l-36 -47q-106 -35 -117 70q-12 212 23 365l24 47l11 153l95 471l35 36q82 11 118 -24l82 -94
l47 -106l35 -24l24 -58l318 -377l59 -47l47 165v353l-24 117q35 36 24 177zM1004 328zM959 1919l-305 -334h-107l-298 338h172l178 -192l163 188h197z" />
    <glyph glyph-name="ncaron" unicode="&#x148;" horiz-adv-x="1119" 
d="M728 480zM736 472zM695 958q113 0 113 -122q-28 -329 28 -658l-47 -75l-75 19q-56 66 -47 169l9 10q-18 244 10 432l-10 75l-56 -9l-85 -123l-56 -84l-235 -385l-47 -151q-28 -47 -94 -28l-37 75l9 10l-9 112l75 630l37 37l66 -46q-19 -94 0 -141l-19 -123
q-28 -28 -29 -194q67 63 76 91l188 310l113 122q47 0 66 38l66 9h-10zM929 1619l-305 -334h-107l-298 338h172l178 -192l163 188h197z" />
    <glyph glyph-name="Odblacute" unicode="&#x150;" horiz-adv-x="1380" 
d="M80 745zM628 1244zM388 188q71 -23 283 47q153 83 212 177q70 141 82 141l71 283l-36 188l-82 106l-176 12l-24 23l-247 -35q-94 -71 -141 -153l-142 -365q-23 -118 59 -330q47 -58 141 -94zM553 1318h200l212 -70l118 -106q82 -130 73 -278l-3 -181q-21 -103 -70 -224
l-35 -35q-12 -84 -201 -271l-282 -129q-77 -16 -188 -12q-281 88 -330 400l12 294l35 47q24 153 153 353l94 106zM750 1868l-199 -283h-140l142 283h197zM1120 1868l-199 -283h-140l142 283h197z" />
    <glyph glyph-name="odblacute" unicode="&#x151;" horiz-adv-x="1099" 
d="M534 178zM319 169q47 19 66 0l57 19l140 103q94 104 113 179l57 253q9 19 -66 151l-66 28l-131 -10l-132 -93l-9 -38l-104 -94l-56 -132q-10 -150 19 -272q18 -56 112 -94zM188 535q-10 -150 19 -272q18 -56 112 -94q47 19 66 0l57 19l140 103q94 104 113 179l57 253
q9 19 -66 151l-66 28l-131 -10l-132 -93l-9 -38l-104 -94zM56 395q0 137 29 225l93 150l138 166l144 88h85q59 -4 131 -28l66 -38q85 -66 104 -216l-10 -216l-66 -178l-56 -104l-113 -112q-94 -85 -122 -85q-113 -19 -141 -19q-40 10 -94 19q-164 49 -188 348zM275 163
q-94 38 -112 94q-29 122 -19 272l56 132l78 99l35 33l132 93l131 10l66 -28q104 -86 96 -246l-40 -156q-28 -96 -148 -208l-106 -92q-110 -8 -169 -3zM536 176zM620 1568l-199 -283h-140l142 283h197zM990 1568l-199 -283h-140l142 283h197z" />
    <glyph glyph-name="Racute" unicode="&#x154;" horiz-adv-x="1192" 
d="M592 1204zM572 1284l150 23h235q130 -35 171 -79q77 -74 65 -98l-12 -129l-59 -94q-118 -106 -518 -271l59 -59l283 -141l54 -40l75 -42l73 -50q104 -33 139 -162q-12 -59 -119 -58l-670 423q-176 82 -223 70q-71 -200 -106 -494q-137 -47 -130 106l36 306l117 341
q12 153 24 218t47 147l71 35l82 12zM337 730l189 23q11 24 212 83l235 106l79 98l-8 64l-130 61l-129 -12q-145 -5 -377 -82l-82 -282zM340 1864q-64 0 -71 -58l7 -83q-19 -26 -13 -71l-3 -48q-10 -48 9 -67q58 -7 84 45l13 179q13 77 -26 103z" />
    <glyph glyph-name="racute" unicode="&#x155;" horiz-adv-x="796" 
d="M568 928zM264 1096q48 -128 8 -304l56 4q160 172 320 260q232 120 232 -104l32 -240q-144 -44 -136 94t-119 103l-209 -169l-128 -112l-48 -116l-40 -148q0 -104 -48 -256q-72 -38 -116 50q-11 109 56 474q21 136 36 392zM290 1564q-64 0 -71 -58l7 -83q-19 -26 -13 -71
l-3 -48q-10 -48 9 -67q58 -7 84 45l13 179q13 77 -26 103z" />
    <glyph glyph-name="Rcaron" unicode="&#x158;" horiz-adv-x="1192" 
d="M592 1204zM572 1284l150 23h235q130 -35 171 -79q77 -74 65 -98l-12 -129l-59 -94q-118 -106 -518 -271l59 -59l283 -141l54 -40l75 -42l73 -50q104 -33 139 -162q-12 -59 -119 -58l-670 423q-176 82 -223 70q-71 -200 -106 -494q-137 -47 -130 106l36 306l117 341
q12 153 24 218t47 147l71 35l82 12zM337 730l189 23q11 24 212 83l235 106l79 98l-8 64l-130 61l-129 -12q-145 -5 -377 -82l-82 -282zM920 1919l-305 -334h-107l-298 338h172l178 -192l163 188h197z" />
    <glyph glyph-name="rcaron" unicode="&#x159;" horiz-adv-x="796" 
d="M568 928zM264 1096q48 -128 8 -304l56 4q160 172 320 260q232 120 232 -104l32 -240q-144 -44 -136 94t-119 103l-209 -169l-128 -112l-48 -116l-40 -148q0 -104 -48 -256q-72 -38 -116 50q-11 109 56 474q21 136 36 392zM809 1619l-305 -334h-107l-298 338h172l178 -192
l163 188h197z" />
    <glyph glyph-name="Sacute" unicode="&#x15a;" horiz-adv-x="985" 
d="M528 1016l200 176zM508 1104zM730 1189q86 19 176 0l177 -47l59 -106q-12 -59 -36 -59h-58l-71 71l-153 23l-294 -59l-177 -59l-82 -58q-63 -91 11 -165l518 -106l283 -106q176 -130 35 -294q-141 -130 -634 -192q-202 3 -356 4l-69 46q0 130 59 118l270 -23l271 23
l118 35q141 12 223 101v64l-129 59l-118 24l-188 11l-165 47q-32 7 -106 24q-106 35 -176 165q-90 398 612 459zM512 1100zM356 1864q-64 0 -71 -58l7 -83q-19 -26 -13 -71l-3 -48q-10 -48 9 -67q58 -7 84 45l13 179q13 77 -26 103z" />
    <glyph glyph-name="sacute" unicode="&#x15b;" horiz-adv-x="829" 
d="M160 240zM168 232zM498 1011q135 0 202 -44q93 -79 85 -132l-9 -79l-17 -18h-25l-25 26q17 150 -211 159l-135 -62l-25 9l-160 -141v-53l67 -35q371 -18 438 -53q127 -97 119 -132q17 -44 -9 -88l9 -115q-237 -185 -439 -203l-109 18q-17 -18 -68 0l-93 53l-25 44
q-8 80 59 88h42q34 -70 76 -70q118 -18 210 0l85 35l84 53v18q59 9 59 26l-8 97l-34 27q0 69 -42 69l-160 27q-59 -18 -84 9q-42 -36 -194 0q-9 35 -51 35l-34 97q0 71 43 141l219 150q101 44 143 27zM250 1564q-64 0 -71 -58l7 -83q-19 -26 -13 -71l-3 -48q-10 -48 9 -67
q58 -7 84 45l13 179q13 77 -26 103z" />
    <glyph glyph-name="Tcedilla" unicode="&#x162;" horiz-adv-x="1189" 
d="M708 700l12 32zM459 1153q165 24 277 27l592 36l56 -48q5 -85 -148 -85q-288 -15 -400 -35q-71 -412 -59 -507l-12 -129l-9 -140l-3 -154q-23 -83 -59 -83q-82 0 -117 106q3 139 0 200q39 279 70 554q36 35 24 129l-24 24l-207 -32l-311 -51l-58 59q0 94 58 94l263 42z
M504 -537l-47 63q72 58 81.5 80.5t9.5 44.5q0 33 -34.5 66.5t-34.5 69.5q0 103 102 103q108 0 108 -124q0 -188 -185 -303z" />
    <glyph glyph-name="tcedilla" unicode="&#x163;" horiz-adv-x="812" 
d="M195 945zM203 937zM292 1149l-30 -210l130 10v-10l299 60l30 -70q-10 -90 -30 -90l-189 10l-80 -30l-140 -10l-60 -20l-50 -309q20 -160 0 -170l20 -120l30 -20h140l110 40l30 -10l139 70q10 40 50 40l40 90l90 30q40 -10 50 -60l-10 -100q-220 -160 -519 -240l-10 10
l-150 -10q-110 80 -140 250l10 329l30 80v100q-30 20 -20 80q50 40 60 90v50q46 159 62 335l56 168q144 -96 52 -363zM386 -537l-47 63q72 58 81.5 80.5t9.5 44.5q0 33 -34.5 66.5t-34.5 69.5q0 103 102 103q108 0 108 -124q0 -188 -185 -303z" />
    <glyph glyph-name="Tcaron" unicode="&#x164;" horiz-adv-x="1189" 
d="M708 700l12 32zM459 1153q165 24 277 27l592 36l56 -48q5 -85 -148 -85q-288 -15 -400 -35q-71 -412 -59 -507l-12 -129l-9 -140l-3 -154q-23 -83 -59 -83q-82 0 -117 106q3 139 0 200q39 279 70 554q36 35 24 129l-24 24l-207 -32l-311 -51l-58 59q0 94 58 94l263 42z
M949 1919l-305 -334h-107l-298 338h172l178 -192l163 188h197z" />
    <glyph glyph-name="tcaron" unicode="&#x165;" horiz-adv-x="1016" 
d="M195 945zM203 937zM292 1149l-30 -210l130 10v-10l299 60l30 -70q-10 -90 -30 -90l-189 10l-80 -30l-140 -10l-60 -20l-50 -309q20 -160 0 -170l20 -120l30 -20h140l110 40l30 -10l139 70q10 40 50 40l40 90l90 30q40 -10 50 -60l-10 -100q-220 -160 -519 -240l-10 10
l-150 -10q-110 80 -140 250l10 329l30 80v100q-30 20 -20 80q50 40 60 90v50q46 159 62 335l56 168q144 -96 52 -363zM809 952l-47 63q72 58 81.5 80.5t9.5 44.5q0 33 -34.5 66.5t-34.5 69.5q0 103 102 103q108 0 108 -124q0 -188 -185 -303z" />
    <glyph glyph-name="Uring" unicode="&#x16e;" horiz-adv-x="1328" 
d="M160 1488v0v0zM208 1264l72 -64q-56 -200 -56 -400l11 -435l36 -106l106 -59h164l165 82q247 224 318 636l-24 259l56 63l74 -39l23 -306l-94 -377l-94 -188l-141 -165l-47 -12l-83 -59l-94 -12l-23 -35l-83 -35q-82 -12 -106 23l-47 -11l-188 117q-94 153 -94 353
q-12 518 82 707zM678 1904q88 0 149.5 -61t61.5 -148t-62 -148.5t-149 -61.5q-88 0 -150 61.5t-62 148.5t62 148t150 61zM678 1595q42 0 71.5 29.5t29.5 70.5t-29.5 70t-71.5 29t-72 -29t-30 -70t30 -70.5t72 -29.5z" />
    <glyph glyph-name="uring" unicode="&#x16f;" horiz-adv-x="1119" 
d="M208 868zM242 1000q43 0 51 -47l-77 -252l-43 -213q-17 -223 0 -261l35 -37l128 18l146 122l86 139q56 19 68 95l43 342l34 85q69 27 95 -65l-9 -131q-34 -94 -43 -224v-270q9 -65 26 -65l129 29l53 -51q-88 -52 -165 -127l-111 -27l-52 55q17 84 0 251h-17l-60 -111
l-162 -140q-147 -75 -224 -47l-60 47l-25 47l-27 111q-7 196 18 355l34 73q43 243 129 299zM588 1704q88 0 149.5 -61t61.5 -148t-62 -148.5t-149 -61.5q-88 0 -150 61.5t-62 148.5t62 148t150 61zM588 1395q42 0 71.5 29.5t29.5 70.5t-29.5 70t-71.5 29t-72 -29t-30 -70
t30 -70.5t72 -29.5z" />
    <glyph glyph-name="Udblacute" unicode="&#x170;" horiz-adv-x="1328" 
d="M160 1488v0v0zM208 1264l72 -64q-56 -200 -56 -400l11 -435l36 -106l106 -59h164l165 82q247 224 318 636l-24 259l56 63l74 -39l23 -306l-94 -377l-94 -188l-141 -165l-47 -12l-83 -59l-94 -12l-23 -35l-83 -35q-82 -12 -106 23l-47 -11l-188 117q-94 153 -94 353
q-12 518 82 707zM720 1868l-199 -283h-140l142 283h197zM1090 1868l-199 -283h-140l142 283h197z" />
    <glyph glyph-name="udblacute" unicode="&#x171;" horiz-adv-x="1119" 
d="M208 868zM242 1000q43 0 51 -47l-77 -252l-43 -213q-17 -223 0 -261l35 -37l128 18l146 122l86 139q56 19 68 95l43 342l34 85q69 27 95 -65l-9 -131q-34 -94 -43 -224v-270q9 -65 26 -65l129 29l53 -51q-88 -52 -165 -127l-111 -27l-52 55q17 84 0 251h-17l-60 -111
l-162 -140q-147 -75 -224 -47l-60 47l-25 47l-27 111q-7 196 18 355l34 73q43 243 129 299zM630 1568l-199 -283h-140l142 283h197zM1000 1568l-199 -283h-140l142 283h197z" />
    <glyph glyph-name="Zacute" unicode="&#x179;" horiz-adv-x="1127" 
d="M228 308zM773 1225q131 -10 291 30q40 -10 50 -60v-51l-80 -50l-60 -70q-121 -80 -372 -331l-10 -30l-70 -61l-10 -30l-131 -150l-130 -191l10 -10l803 70l60 -80l-30 -70l-140 20l-40 -20l-121 10q-241 -31 -251 -20l-100 -31l-10 10l-161 -30l-10 -20l-10 10l-171 -10
l-40 40l20 111l81 110l40 30l150 221l342 382l150 130l-10 20q-110 10 -110 -20l-71 20l-30 -20q-60 40 -361 -80l-60 80q30 81 110 81zM232 304zM299 1864q-64 0 -71 -58l7 -83q-19 -26 -13 -71l-3 -48q-10 -48 9 -67q58 -7 84 45l13 179q13 77 -26 103z" />
    <glyph glyph-name="zacute" unicode="&#x17a;" horiz-adv-x="972" 
d="M330 178zM338 170zM86 826q-22 85 43 118l493 75l96 -11q22 32 215 21l32 -43v-75l-129 -85l-182 -226q-21 11 -86 -64h-21l-236 -236l21 -32l504 22l150 -11q22 32 129 21l43 -64q11 -64 -32 -86l-472 11l-182 -32l-11 10q-96 11 -161 -21q-32 21 -193 0q-43 11 -43 64
l22 86l107 139l139 108q86 107 268 257l86 118l-43 11q-150 -22 -182 0l-43 -32q-150 -11 -257 -76h-43zM269 1564q-64 0 -71 -58l7 -83q-19 -26 -13 -71l-3 -48q-10 -48 9 -67q58 -7 84 45l13 179q13 77 -26 103z" />
    <glyph glyph-name="Zdot" unicode="&#x17b;" horiz-adv-x="1127" 
d="M228 308zM773 1225q131 -10 291 30q40 -10 50 -60v-51l-80 -50l-60 -70q-121 -80 -372 -331l-10 -30l-70 -61l-10 -30l-131 -150l-130 -191l10 -10l803 70l60 -80l-30 -70l-140 20l-40 -20l-121 10q-241 -31 -251 -20l-100 -31l-10 10l-161 -30l-10 -20l-10 10l-171 -10
l-40 40l20 111l81 110l40 30l150 221l342 382l150 130l-10 20q-110 10 -110 -20l-71 20l-30 -20q-60 40 -361 -80l-60 80q30 81 110 81zM232 304zM494 1820q49 0 83.5 -34.5t34.5 -82.5q0 -49 -34.5 -83.5t-83.5 -34.5q-48 0 -82.5 34.5t-34.5 83.5t34 83t83 34z" />
    <glyph glyph-name="zdot" unicode="&#x17c;" horiz-adv-x="972" 
d="M330 178zM338 170zM86 826q-22 85 43 118l493 75l96 -11q22 32 215 21l32 -43v-75l-129 -85l-182 -226q-21 11 -86 -64h-21l-236 -236l21 -32l504 22l150 -11q22 32 129 21l43 -64q11 -64 -32 -86l-472 11l-182 -32l-11 10q-96 11 -161 -21q-32 21 -193 0q-43 11 -43 64
l22 86l107 139l139 108q86 107 268 257l86 118l-43 11q-150 -22 -182 0l-43 -32q-150 -11 -257 -76h-43zM494 1520q49 0 83.5 -34.5t34.5 -82.5q0 -49 -34.5 -83.5t-83.5 -34.5q-48 0 -82.5 34.5t-34.5 83.5t34 83t83 34z" />
    <glyph glyph-name="euro" unicode="&#x20ac;" 
d="M805 928l-58 -141h-414q-3 -37 -3 -71q0 -28 2 -60h347l-49 -141h-283q14 -133 109 -242q103 -118 231 -118q89 0 187 40t157 103v-217q-140 -106 -365 -106q-216 0 -359 167q-124 145 -160 373h-116v141h98q-5 68 -1 131h-97v141h115q37 233 175 389q154 173 378 173
q250 0 353 -93l-89 -164q-101 77 -259 77q-152 0 -250 -118q-84 -103 -108 -264h459z" />
    <glyph glyph-name="glyph309" horiz-adv-x="2048" 
d="M392 918l47 16l71 102l31 8l55 125q-15 16 0 63l-47 71l-125 -16l-126 -118l-8 -31q-8 -39 24 -118l31 -63l39 -15zM228 463q39 -8 141 23l55 24l8 24l78 55v31q-110 133 -102 149h-39l-71 -63l-78 -117l-24 -16v-71zM447 1397q134 -8 165 -47q86 -102 79 -149v-63
q-24 -16 -16 -63q-32 0 -32 -63l-188 -188q79 -79 94 -118q32 -15 32 -39h23l87 94v71q23 23 47 15l23 -23l24 -8l23 -31l-23 -63l-118 -126l39 -23l94 23l165 126q24 16 71 -31v-48l-87 -70h-23q-47 -79 -165 -102l-102 15l-55 48h-31l-110 -118h-24l-39 -39l-86 -16l-8 8
l-47 -16l-71 31l-78 79l-16 39l32 134l47 47l7 31l32 31l16 32l86 86l-8 32q-133 172 -118 251l47 78l8 31l24 8l70 79h16q16 39 94 55z" />
    </font>
</defs>
</svg>
